<svg width="800" height="528" viewBox="0 0 800 528" fill="none" xmlns="http://www.w3.org/2000/svg">
<path d="M268.754 270H134L143.96 175H279.859L268.754 270Z" fill="#F5F5F5"/>
<path d="M148.813 254.057C148.694 254.045 150.088 239.758 151.923 222.151C153.76 204.538 155.344 190.273 155.462 190.286C155.58 190.298 154.188 204.581 152.351 222.194C150.516 239.802 148.932 254.069 148.813 254.057Z" fill="#E0E0E0"/>
<path d="M166.584 193.676C170.32 193.676 173.348 193.581 173.348 193.463C173.348 193.346 170.32 193.25 166.584 193.25C162.848 193.25 159.82 193.346 159.82 193.463C159.82 193.581 162.848 193.676 166.584 193.676Z" fill="#E0E0E0"/>
<path d="M230.906 193.463C230.906 193.581 218.842 193.676 203.964 193.676C189.08 193.676 177.019 193.58 177.019 193.463C177.019 193.345 189.08 193.25 203.964 193.25C218.842 193.25 230.906 193.345 230.906 193.463Z" fill="#E0E0E0"/>
<path d="M164.989 227.437C168.725 227.437 171.754 227.342 171.754 227.224C171.754 227.107 168.725 227.012 164.989 227.012C161.254 227.012 158.225 227.107 158.225 227.224C158.225 227.342 161.254 227.437 164.989 227.437Z" fill="#E0E0E0"/>
<path d="M229.312 227.224C229.312 227.342 217.247 227.437 202.369 227.437C187.485 227.437 175.424 227.342 175.424 227.224C175.424 227.107 187.485 227.012 202.369 227.012C217.247 227.011 229.312 227.107 229.312 227.224Z" fill="#E0E0E0"/>
<path d="M210.955 242.788C210.955 242.905 198.891 243 184.013 243C169.13 243 157.068 242.905 157.068 242.788C157.068 242.67 169.13 242.574 184.013 242.574C198.891 242.574 210.955 242.67 210.955 242.788Z" fill="#E0E0E0"/>
<path d="M169.794 203.207C175.049 203.207 179.31 203.112 179.31 202.995C179.31 202.877 175.049 202.782 169.794 202.782C164.538 202.782 160.278 202.877 160.278 202.995C160.278 203.112 164.538 203.207 169.794 203.207Z" fill="#E0E0E0"/>
<path d="M169.309 217.182C174.565 217.182 178.826 217.087 178.826 216.969C178.826 216.851 174.565 216.755 169.309 216.755C164.053 216.755 159.792 216.851 159.792 216.969C159.792 217.087 164.053 217.182 169.309 217.182Z" fill="#E0E0E0"/>
<path d="M185.4 237.153C190.655 237.153 194.916 237.058 194.916 236.94C194.916 236.823 190.655 236.727 185.4 236.727C180.144 236.727 175.884 236.823 175.884 236.94C175.884 237.058 180.144 237.153 185.4 237.153Z" fill="#E0E0E0"/>
<path d="M248.55 202.995C248.55 203.113 237.664 203.207 224.239 203.207C210.809 203.207 199.926 203.113 199.926 202.995C199.926 202.877 210.81 202.782 224.239 202.782C237.664 202.782 248.55 202.878 248.55 202.995Z" fill="#E0E0E0"/>
<path d="M233.544 217.779C233.544 217.897 222.658 217.992 209.233 217.992C195.803 217.992 184.92 217.896 184.92 217.779C184.92 217.661 195.804 217.566 209.233 217.566C222.658 217.565 233.544 217.661 233.544 217.779Z" fill="#E0E0E0"/>
<path d="M250.277 236.94C250.277 237.058 239.39 237.153 225.966 237.153C212.536 237.153 201.653 237.057 201.653 236.94C201.653 236.822 212.536 236.727 225.966 236.727C239.39 236.726 250.277 236.822 250.277 236.94Z" fill="#E0E0E0"/>
<path d="M205.881 254.057C205.881 254.175 194.994 254.27 181.57 254.27C168.14 254.27 157.257 254.175 157.257 254.057C157.257 253.939 168.14 253.844 181.57 253.844C194.994 253.844 205.881 253.94 205.881 254.057Z" fill="#E0E0E0"/>
<path d="M259.651 254.057C259.651 254.175 248.765 254.27 235.34 254.27C221.911 254.27 211.027 254.175 211.027 254.057C211.027 253.939 221.911 253.844 235.34 253.844C248.766 253.844 259.651 253.94 259.651 254.057Z" fill="#E0E0E0"/>
<path d="M205.876 259.626C205.876 259.744 194.99 259.839 181.566 259.839C168.136 259.839 157.252 259.744 157.252 259.626C157.252 259.509 168.136 259.413 181.566 259.413C194.991 259.413 205.876 259.509 205.876 259.626Z" fill="#E0E0E0"/>
<path d="M208.241 207.007C208.241 207.125 197.355 207.22 183.931 207.22C170.501 207.22 159.618 207.125 159.618 207.007C159.618 206.889 170.501 206.794 183.931 206.794C197.355 206.794 208.241 206.889 208.241 207.007Z" fill="#E0E0E0"/>
<path d="M189.013 203.26C192.472 203.26 195.275 203.165 195.275 203.047C195.275 202.93 192.472 202.834 189.013 202.834C185.554 202.834 182.75 202.93 182.75 203.047C182.75 203.165 185.554 203.26 189.013 203.26Z" fill="#E0E0E0"/>
<path d="M163.9 232.025C167.359 232.025 170.163 231.93 170.163 231.812C170.163 231.694 167.359 231.598 163.9 231.598C160.441 231.598 157.638 231.694 157.638 231.812C157.638 231.93 160.441 232.025 163.9 232.025Z" fill="#E0E0E0"/>
<path d="M163.603 237.153C167.062 237.153 169.866 237.058 169.866 236.94C169.866 236.823 167.062 236.727 163.603 236.727C160.145 236.727 157.341 236.823 157.341 236.94C157.341 237.058 160.145 237.153 163.603 237.153Z" fill="#E0E0E0"/>
<path d="M278.375 185.047C278.375 185.165 248.069 185.26 210.694 185.26C173.305 185.26 143.007 185.164 143.007 185.047C143.007 184.929 173.306 184.833 210.694 184.833C248.069 184.833 278.375 184.929 278.375 185.047Z" fill="#E0E0E0"/>
<path d="M152.138 182.104C153.024 182.104 153.742 181.393 153.742 180.516C153.742 179.639 153.024 178.929 152.138 178.929C151.252 178.929 150.534 179.639 150.534 180.516C150.534 181.393 151.252 182.104 152.138 182.104Z" fill="white"/>
<path d="M159.026 182.104C159.912 182.104 160.63 181.393 160.63 180.516C160.63 179.639 159.912 178.929 159.026 178.929C158.14 178.929 157.422 179.639 157.422 180.516C157.422 181.393 158.14 182.104 159.026 182.104Z" fill="white"/>
<path d="M165.916 182.104C166.801 182.104 167.52 181.393 167.52 180.516C167.52 179.639 166.801 178.929 165.916 178.929C165.03 178.929 164.312 179.639 164.312 180.516C164.312 181.393 165.03 182.104 165.916 182.104Z" fill="white"/>
<path d="M723.895 229.247H550.053L562.902 106.691H738.221L723.895 229.247Z" fill="#F5F5F5"/>
<path d="M569.161 208.679C569.009 208.663 570.806 190.232 573.175 167.518C575.544 144.796 577.588 126.394 577.741 126.411C577.893 126.427 576.097 144.853 573.727 167.575C571.359 190.289 569.315 208.695 569.161 208.679Z" fill="#E0E0E0"/>
<path d="M592.088 130.784C596.908 130.784 600.815 130.661 600.815 130.509C600.815 130.357 596.908 130.233 592.088 130.233C587.269 130.233 583.362 130.357 583.362 130.509C583.362 130.661 587.269 130.784 592.088 130.784Z" fill="#E0E0E0"/>
<path d="M675.066 130.509C675.066 130.661 659.503 130.784 640.309 130.784C621.108 130.784 605.547 130.661 605.547 130.509C605.547 130.357 621.108 130.234 640.309 130.234C659.504 130.234 675.066 130.358 675.066 130.509Z" fill="#E0E0E0"/>
<path d="M590.031 174.337C594.85 174.337 598.757 174.215 598.757 174.063C598.757 173.911 594.85 173.788 590.031 173.788C585.211 173.788 581.304 173.911 581.304 174.063C581.304 174.215 585.211 174.337 590.031 174.337Z" fill="#E0E0E0"/>
<path d="M673.01 174.063C673.01 174.215 657.446 174.337 638.253 174.337C619.052 174.337 603.491 174.214 603.491 174.063C603.491 173.911 619.052 173.787 638.253 173.787C657.446 173.787 673.01 173.911 673.01 174.063Z" fill="#E0E0E0"/>
<path d="M649.331 194.14C649.331 194.292 633.767 194.416 614.573 194.416C595.372 194.416 579.811 194.292 579.811 194.14C579.811 193.988 595.372 193.866 614.573 193.866C633.767 193.866 649.331 193.988 649.331 194.14Z" fill="#E0E0E0"/>
<path d="M596.23 143.081C603.01 143.081 608.507 142.958 608.507 142.806C608.507 142.655 603.01 142.532 596.23 142.532C589.45 142.532 583.954 142.655 583.954 142.806C583.954 142.958 589.45 143.081 596.23 143.081Z" fill="#E0E0E0"/>
<path d="M595.605 161.107C602.385 161.107 607.881 160.984 607.881 160.833C607.881 160.681 602.385 160.558 595.605 160.558C588.825 160.558 583.329 160.681 583.329 160.833C583.329 160.984 588.825 161.107 595.605 161.107Z" fill="#E0E0E0"/>
<path d="M616.362 186.872C623.142 186.872 628.638 186.749 628.638 186.597C628.638 186.445 623.142 186.321 616.362 186.321C609.582 186.321 604.086 186.445 604.086 186.597C604.086 186.749 609.582 186.872 616.362 186.872Z" fill="#E0E0E0"/>
<path d="M697.829 142.806C697.829 142.958 683.786 143.081 666.467 143.081C649.142 143.081 635.102 142.957 635.102 142.806C635.102 142.654 649.142 142.531 666.467 142.531C683.786 142.531 697.829 142.654 697.829 142.806Z" fill="#E0E0E0"/>
<path d="M678.471 161.878C678.471 162.03 664.427 162.153 647.109 162.153C629.784 162.153 615.744 162.03 615.744 161.878C615.744 161.726 629.784 161.603 647.109 161.603C664.427 161.602 678.471 161.726 678.471 161.878Z" fill="#E0E0E0"/>
<path d="M700.056 186.597C700.056 186.749 686.013 186.872 668.694 186.872C651.369 186.872 637.329 186.749 637.329 186.597C637.329 186.445 651.369 186.322 668.694 186.322C686.013 186.322 700.056 186.445 700.056 186.597Z" fill="#E0E0E0"/>
<path d="M642.783 208.679C642.783 208.831 628.739 208.953 611.42 208.953C594.096 208.953 580.055 208.831 580.055 208.679C580.055 208.527 594.096 208.404 611.42 208.404C628.739 208.404 642.783 208.528 642.783 208.679Z" fill="#E0E0E0"/>
<path d="M712.151 208.679C712.151 208.831 698.108 208.953 680.789 208.953C663.463 208.953 649.424 208.831 649.424 208.679C649.424 208.527 663.463 208.404 680.789 208.404C698.108 208.404 712.151 208.528 712.151 208.679Z" fill="#E0E0E0"/>
<path d="M642.777 215.864C642.777 216.016 628.735 216.138 611.415 216.138C594.09 216.138 580.051 216.016 580.051 215.864C580.051 215.712 594.09 215.589 611.415 215.589C628.735 215.589 642.777 215.712 642.777 215.864Z" fill="#E0E0E0"/>
<path d="M645.829 147.982C645.829 148.134 631.785 148.257 614.467 148.257C597.142 148.257 583.102 148.134 583.102 147.982C583.102 147.83 597.142 147.708 614.467 147.708C631.785 147.707 645.829 147.83 645.829 147.982Z" fill="#E0E0E0"/>
<path d="M621.023 143.147C625.485 143.147 629.102 143.024 629.102 142.873C629.102 142.721 625.485 142.598 621.023 142.598C616.561 142.598 612.944 142.721 612.944 142.873C612.944 143.024 616.561 143.147 621.023 143.147Z" fill="#E0E0E0"/>
<path d="M588.626 180.256C593.088 180.256 596.705 180.134 596.705 179.982C596.705 179.83 593.088 179.708 588.626 179.708C584.164 179.708 580.547 179.83 580.547 179.982C580.547 180.134 584.164 180.256 588.626 180.256Z" fill="#E0E0E0"/>
<path d="M588.244 186.872C592.706 186.872 596.323 186.749 596.323 186.597C596.323 186.445 592.706 186.321 588.244 186.321C583.782 186.321 580.165 186.445 580.165 186.597C580.165 186.749 583.782 186.872 588.244 186.872Z" fill="#E0E0E0"/>
<path d="M736.306 119.652C736.306 119.804 697.209 119.927 648.994 119.927C600.76 119.927 561.673 119.804 561.673 119.652C561.673 119.5 600.761 119.377 648.994 119.377C697.208 119.376 736.306 119.5 736.306 119.652Z" fill="#E0E0E0"/>
<path d="M573.452 115.854C574.594 115.854 575.52 114.938 575.52 113.808C575.52 112.677 574.594 111.761 573.452 111.761C572.309 111.761 571.383 112.677 571.383 113.808C571.383 114.938 572.309 115.854 573.452 115.854Z" fill="white"/>
<path d="M582.338 115.855C583.481 115.855 584.407 114.939 584.407 113.808C584.407 112.676 583.481 111.76 582.338 111.76C581.195 111.76 580.269 112.676 580.269 113.808C580.269 114.939 581.195 115.855 582.338 115.855Z" fill="white"/>
<path d="M591.226 115.855C592.368 115.855 593.295 114.939 593.295 113.808C593.295 112.676 592.368 111.76 591.226 111.76C590.083 111.76 589.156 112.676 589.156 113.808C589.156 114.939 590.083 115.855 591.226 115.855Z" fill="white"/>
<path d="M359.272 149.225H250.999L259.001 72.8926H368.194L359.272 149.225Z" fill="#EBEBEB"/>
<path d="M262.899 136.414C262.747 136.398 263.819 124.915 265.295 110.768C266.77 96.6163 268.091 85.1603 268.243 85.1751C268.396 85.1899 267.324 96.6722 265.847 110.824C264.372 124.971 263.052 136.429 262.899 136.414Z" fill="#E0E0E0"/>
<path d="M277.179 88.0022C280.18 88.0022 282.613 87.8793 282.613 87.7277C282.613 87.5761 280.18 87.4532 277.179 87.4532C274.177 87.4532 271.744 87.5761 271.744 87.7277C271.744 87.8793 274.177 88.0022 277.179 88.0022Z" fill="#E0E0E0"/>
<path d="M307.211 88.0022C319.168 88.0022 328.86 87.8793 328.86 87.7277C328.86 87.5761 319.168 87.4532 307.211 87.4532C295.255 87.4532 285.562 87.5761 285.562 87.7277C285.562 87.8793 295.255 88.0022 307.211 88.0022Z" fill="#E0E0E0"/>
<path d="M275.898 115.128C278.9 115.128 281.333 115.005 281.333 114.854C281.333 114.702 278.9 114.579 275.898 114.579C272.896 114.579 270.462 114.702 270.462 114.854C270.462 115.005 272.896 115.128 275.898 115.128Z" fill="#E0E0E0"/>
<path d="M305.93 115.128C317.886 115.128 327.579 115.005 327.579 114.854C327.579 114.702 317.886 114.579 305.93 114.579C293.973 114.579 284.281 114.702 284.281 114.854C284.281 115.005 293.973 115.128 305.93 115.128Z" fill="#E0E0E0"/>
<path d="M291.182 127.634C303.139 127.634 312.831 127.511 312.831 127.359C312.831 127.207 303.139 127.083 291.182 127.083C279.226 127.083 269.533 127.207 269.533 127.359C269.533 127.511 279.226 127.634 291.182 127.634Z" fill="#E0E0E0"/>
<path d="M279.758 95.6609C283.981 95.6609 287.404 95.5375 287.404 95.3854C287.404 95.2332 283.981 95.1098 279.758 95.1098C275.535 95.1098 272.112 95.2332 272.112 95.3854C272.112 95.5375 275.535 95.6609 279.758 95.6609Z" fill="#E0E0E0"/>
<path d="M279.369 106.889C283.591 106.889 287.014 106.766 287.014 106.614C287.014 106.463 283.591 106.34 279.369 106.34C275.146 106.34 271.723 106.463 271.723 106.614C271.723 106.766 275.146 106.889 279.369 106.889Z" fill="#E0E0E0"/>
<path d="M292.298 122.936C296.52 122.936 299.944 122.812 299.944 122.66C299.944 122.508 296.52 122.385 292.298 122.385C288.075 122.385 284.652 122.508 284.652 122.66C284.652 122.812 288.075 122.936 292.298 122.936Z" fill="#E0E0E0"/>
<path d="M323.503 95.6609C334.291 95.6609 343.037 95.5375 343.037 95.3854C343.037 95.2332 334.291 95.1098 323.503 95.1098C312.715 95.1098 303.969 95.2332 303.969 95.3854C303.969 95.5375 312.715 95.6609 323.503 95.6609Z" fill="#E0E0E0"/>
<path d="M311.446 107.539C322.234 107.539 330.979 107.416 330.979 107.265C330.979 107.113 322.234 106.99 311.446 106.99C300.657 106.99 291.912 107.113 291.912 107.265C291.912 107.416 300.657 107.539 311.446 107.539Z" fill="#E0E0E0"/>
<path d="M324.89 122.936C335.678 122.936 344.424 122.812 344.424 122.66C344.424 122.508 335.678 122.385 324.89 122.385C314.102 122.385 305.356 122.508 305.356 122.66C305.356 122.812 314.102 122.936 324.89 122.936Z" fill="#E0E0E0"/>
<path d="M289.218 136.689C300.007 136.689 308.752 136.566 308.752 136.414C308.752 136.263 300.007 136.14 289.218 136.14C278.43 136.14 269.685 136.263 269.685 136.414C269.685 136.566 278.43 136.689 289.218 136.689Z" fill="#E0E0E0"/>
<path d="M332.423 136.689C343.211 136.689 351.956 136.566 351.956 136.414C351.956 136.263 343.211 136.14 332.423 136.14C321.634 136.14 312.889 136.263 312.889 136.414C312.889 136.566 321.634 136.689 332.423 136.689Z" fill="#E0E0E0"/>
<path d="M289.215 141.163C300.003 141.163 308.749 141.04 308.749 140.888C308.749 140.737 300.003 140.614 289.215 140.614C278.427 140.614 269.681 140.737 269.681 140.888C269.681 141.04 278.427 141.163 289.215 141.163Z" fill="#E0E0E0"/>
<path d="M291.116 98.8848C301.904 98.8848 310.65 98.762 310.65 98.6104C310.65 98.4588 301.904 98.3359 291.116 98.3359C280.328 98.3359 271.582 98.4588 271.582 98.6104C271.582 98.762 280.328 98.8848 291.116 98.8848Z" fill="#E0E0E0"/>
<path d="M295.2 95.7021C297.979 95.7021 300.232 95.5792 300.232 95.4276C300.232 95.276 297.979 95.1531 295.2 95.1531C292.422 95.1531 290.169 95.276 290.169 95.4276C290.169 95.5792 292.422 95.7021 295.2 95.7021Z" fill="#E0E0E0"/>
<path d="M275.022 118.816C277.801 118.816 280.054 118.692 280.054 118.54C280.054 118.388 277.801 118.264 275.022 118.264C272.243 118.264 269.991 118.388 269.991 118.54C269.991 118.692 272.243 118.816 275.022 118.816Z" fill="#E0E0E0"/>
<path d="M274.784 122.936C277.563 122.936 279.816 122.812 279.816 122.66C279.816 122.508 277.563 122.385 274.784 122.385C272.006 122.385 269.753 122.508 269.753 122.66C269.753 122.812 272.006 122.936 274.784 122.936Z" fill="#E0E0E0"/>
<path d="M367.002 80.9652C367.002 81.1172 342.651 81.2397 312.621 81.2397C282.579 81.2397 258.235 81.1162 258.235 80.9652C258.235 80.8132 282.58 80.6897 312.621 80.6897C342.651 80.6897 367.002 80.8132 367.002 80.9652Z" fill="#E0E0E0"/>
<path d="M265.571 78.6005C266.283 78.6005 266.86 78.0296 266.86 77.3253C266.86 76.621 266.283 76.0501 265.571 76.0501C264.86 76.0501 264.283 76.621 264.283 77.3253C264.283 78.0296 264.86 78.6005 265.571 78.6005Z" fill="white"/>
<path d="M271.106 78.6005C271.818 78.6005 272.395 78.0296 272.395 77.3253C272.395 76.621 271.818 76.0501 271.106 76.0501C270.395 76.0501 269.818 76.621 269.818 77.3253C269.818 78.0296 270.395 78.6005 271.106 78.6005Z" fill="white"/>
<path d="M276.641 78.6005C277.353 78.6005 277.93 78.0296 277.93 77.3253C277.93 76.621 277.353 76.0501 276.641 76.0501C275.929 76.0501 275.353 76.621 275.353 77.3253C275.353 78.0296 275.929 78.6005 276.641 78.6005Z" fill="white"/>
<path d="M653.543 282.438H599.015V457.102H653.543V282.438Z" fill="#EBEBEB"/>
<path d="M699.832 282.469H653.542V457.072H699.832V282.469Z" fill="#E0E0E0"/>
<path d="M647.022 289.512H603.275V327.14H647.022V289.512Z" fill="#E0E0E0"/>
<path d="M647.022 331.401H603.275V369.029H647.022V331.401Z" fill="#E0E0E0"/>
<path d="M647.022 373.293H603.275V410.919H647.022V373.293Z" fill="#E0E0E0"/>
<path d="M647.022 415.182H603.275V452.809H647.022V415.182Z" fill="#E0E0E0"/>
<path d="M623.628 297.962C624.467 297.962 625.147 297.289 625.147 296.459C625.147 295.629 624.467 294.956 623.628 294.956C622.789 294.956 622.109 295.629 622.109 296.459C622.109 297.289 622.789 297.962 623.628 297.962Z" fill="#FAFAFA"/>
<path d="M623.628 340.339C624.467 340.339 625.147 339.666 625.147 338.836C625.147 338.006 624.467 337.333 623.628 337.333C622.789 337.333 622.109 338.006 622.109 338.836C622.109 339.666 622.789 340.339 623.628 340.339Z" fill="#FAFAFA"/>
<path d="M623.628 382.719C624.467 382.719 625.147 382.045 625.147 381.215C625.147 380.385 624.467 379.712 623.628 379.712C622.789 379.712 622.109 380.385 622.109 381.215C622.109 382.045 622.789 382.719 623.628 382.719Z" fill="#FAFAFA"/>
<path d="M623.628 425.095C624.467 425.095 625.147 424.422 625.147 423.592C625.147 422.762 624.467 422.089 623.628 422.089C622.789 422.089 622.109 422.762 622.109 423.592C622.109 424.422 622.789 425.095 623.628 425.095Z" fill="#FAFAFA"/>
<path d="M605.318 457.102H599.015V492.137H605.318V457.102Z" fill="#E0E0E0"/>
<path d="M653.324 457.102H647.022V492.137H653.324V457.102Z" fill="#E0E0E0"/>
<path d="M699.156 457.102H692.854V492.137H699.156V457.102Z" fill="#E0E0E0"/>
<path d="M140.95 482.256C139.334 480.891 135.728 476.564 138.509 471.531C139.529 469.686 141.693 468.774 143.653 467.96C145.613 467.147 147.673 466.441 149.294 465.081C152.352 462.518 153.196 458.261 155.226 454.842C157.556 450.916 161.906 447.976 166.501 448.18C171.764 448.417 176.154 452.65 178.143 457.48C180.132 462.307 180.202 467.668 180.243 472.882C180.266 475.765 180.136 479.016 177.987 480.962C176.006 482.757 173.024 482.779 170.339 482.698C160.752 482.409 151.166 482.117 141.579 481.828" fill="#F5F5F5"/>
<path d="M195.958 404.347H120.323L133.948 484.379C134.544 487.875 137.11 490.568 140.405 491.504C140.493 491.531 140.582 491.551 140.67 491.575C140.895 491.632 141.113 491.707 141.343 491.746C141.842 491.848 142.357 491.9 142.881 491.92C142.884 491.945 142.89 491.972 142.893 491.997L143.262 491.939H143.264H176.974C177.607 491.939 178.226 491.874 178.826 491.757C182.806 491.151 185.993 488.003 186.477 483.935L193.045 428.792L193.341 426.6H193.306L195.906 404.762L195.958 404.347ZM181.69 455.397H173.928L174.71 432.169H183.704L181.69 455.397ZM184.458 432.169H191.888L189.122 455.397H182.443L184.458 432.169ZM162.283 481.145L161.811 460.968H172.989L172.308 481.145H162.283ZM150.198 460.968H161.06L161.532 481.145H151.791L150.198 460.968ZM151.038 481.145H141.932C141.066 475.698 139.94 468.618 138.721 460.968H149.445L151.038 481.145ZM149.759 455.397L147.926 432.169H160.386L160.929 455.397H149.759ZM161.68 455.397L161.137 432.169H173.96L173.177 455.397H161.68ZM161.007 426.6L160.505 405.09H174.873L174.147 426.6H161.007ZM160.256 426.6H147.487L145.79 405.09H159.753L160.256 426.6ZM146.734 426.6H133.224C132.746 423.63 132.291 420.817 131.882 418.288C130.473 409.591 129.942 406.321 129.649 405.09H145.037L146.734 426.6ZM147.174 432.169L149.007 455.397H137.834C137.458 453.041 137.077 450.656 136.697 448.27C135.821 442.788 134.944 437.306 134.12 432.169H147.174ZM137.074 455.397H129.775L125.821 432.169H133.359C134.511 439.348 135.789 447.337 137.074 455.397ZM137.962 460.968C139.074 467.95 140.169 474.836 141.171 481.145H134.158L130.722 460.968H137.962ZM173.059 481.145L173.74 460.968H181.206L179.456 481.145H173.059ZM174.898 426.6L175.624 405.09H186.052L184.187 426.6H174.898ZM128.934 405.09C129.234 406.645 130.614 415.109 132.464 426.6H124.873L121.21 405.09H128.934ZM186.056 481.145H180.21L181.961 460.968H188.459L186.056 481.145ZM192.552 426.6H184.94L186.805 405.09H195.114L192.552 426.6Z" fill="#E0E0E0"/>
<path d="M694.441 492.137C694.441 492.289 556.396 492.412 386.148 492.412C215.841 492.412 77.8262 492.289 77.8262 492.137C77.8262 491.985 215.841 491.861 386.148 491.861C556.396 491.861 694.441 491.985 694.441 492.137Z" fill="#263238"/>
<path d="M422.593 263.785H304.296L313.04 180.387H432.341L422.593 263.785Z" fill="#263238"/>
<path d="M416.571 263.785H298.273L307.017 180.387H426.318L416.571 263.785Z" fill="#455A64"/>
<path d="M412.183 260.009H302.414L310.528 182.622H421.23L412.183 260.009Z" fill="#F5F5F5"/>
<path d="M316.761 221.107C315.266 235.452 314.178 247.093 314.331 247.109C314.484 247.124 315.82 235.509 317.315 221.164C318.81 206.819 319.898 195.178 319.745 195.163C319.592 195.147 318.256 206.763 316.761 221.107Z" fill="#263238"/>
<path d="M328.787 198.019C331.83 198.019 334.297 197.896 334.297 197.744C334.297 197.593 331.83 197.47 328.787 197.47C325.743 197.47 323.276 197.593 323.276 197.744C323.276 197.896 325.743 198.019 328.787 198.019Z" fill="#263238"/>
<path d="M359.235 198.019C371.357 198.019 381.184 197.896 381.184 197.744C381.184 197.593 371.357 197.47 359.235 197.47C347.113 197.47 337.286 197.593 337.286 197.744C337.286 197.896 347.113 198.019 359.235 198.019Z" fill="#E8505B"/>
<path d="M327.487 225.521C330.531 225.521 332.998 225.398 332.998 225.246C332.998 225.095 330.531 224.972 327.487 224.972C324.444 224.972 321.977 225.095 321.977 225.246C321.977 225.398 324.444 225.521 327.487 225.521Z" fill="#263238"/>
<path d="M357.936 225.521C370.058 225.521 379.884 225.398 379.884 225.246C379.884 225.095 370.058 224.972 357.936 224.972C345.814 224.972 335.987 225.095 335.987 225.246C335.987 225.398 345.814 225.521 357.936 225.521Z" fill="#E8505B"/>
<path d="M342.983 238.198C355.105 238.198 364.932 238.075 364.932 237.922C364.932 237.77 355.105 237.647 342.983 237.647C330.861 237.647 321.034 237.77 321.034 237.922C321.034 238.075 330.861 238.198 342.983 238.198Z" fill="#E8505B"/>
<path d="M331.402 205.784C335.683 205.784 339.154 205.661 339.154 205.509C339.154 205.356 335.683 205.233 331.402 205.233C327.121 205.233 323.651 205.356 323.651 205.509C323.651 205.661 327.121 205.784 331.402 205.784Z" fill="#E8505B"/>
<path d="M331.008 217.166C335.289 217.166 338.759 217.043 338.759 216.892C338.759 216.74 335.289 216.617 331.008 216.617C326.727 216.617 323.256 216.74 323.256 216.892C323.256 217.043 326.727 217.166 331.008 217.166Z" fill="#E8505B"/>
<path d="M344.114 233.435C348.395 233.435 351.866 233.311 351.866 233.159C351.866 233.007 348.395 232.884 344.114 232.884C339.832 232.884 336.361 233.007 336.361 233.159C336.361 233.311 339.832 233.435 344.114 233.435Z" fill="#E8505B"/>
<path d="M375.751 205.784C386.689 205.784 395.556 205.661 395.556 205.509C395.556 205.356 386.689 205.233 375.751 205.233C364.813 205.233 355.946 205.356 355.946 205.509C355.946 205.661 364.813 205.784 375.751 205.784Z" fill="#263238"/>
<path d="M363.527 217.827C374.465 217.827 383.332 217.704 383.332 217.552C383.332 217.399 374.465 217.276 363.527 217.276C352.589 217.276 343.722 217.399 343.722 217.552C343.722 217.704 352.589 217.827 363.527 217.827Z" fill="#263238"/>
<path d="M377.158 233.435C388.096 233.435 396.963 233.311 396.963 233.159C396.963 233.007 388.096 232.884 377.158 232.884C366.22 232.884 357.354 233.007 357.354 233.159C357.354 233.311 366.22 233.435 377.158 233.435Z" fill="#263238"/>
<path d="M340.993 247.378C351.931 247.378 360.798 247.255 360.798 247.103C360.798 246.952 351.931 246.829 340.993 246.829C330.055 246.829 321.188 246.952 321.188 247.103C321.188 247.255 330.055 247.378 340.993 247.378Z" fill="#263238"/>
<path d="M384.795 247.378C395.732 247.378 404.599 247.255 404.599 247.103C404.599 246.952 395.732 246.829 384.795 246.829C373.857 246.829 364.99 246.952 364.99 247.103C364.99 247.255 373.857 247.378 384.795 247.378Z" fill="#263238"/>
<path d="M340.99 251.915C351.927 251.915 360.793 251.792 360.793 251.641C360.793 251.489 351.927 251.366 340.99 251.366C330.052 251.366 321.186 251.489 321.186 251.641C321.186 251.792 330.052 251.915 340.99 251.915Z" fill="#263238"/>
<path d="M342.917 209.051C353.855 209.051 362.722 208.929 362.722 208.777C362.722 208.625 353.855 208.502 342.917 208.502C331.979 208.502 323.112 208.625 323.112 208.777C323.112 208.929 331.979 209.051 342.917 209.051Z" fill="#263238"/>
<path d="M347.057 205.825C349.874 205.825 352.158 205.702 352.158 205.551C352.158 205.399 349.874 205.276 347.057 205.276C344.24 205.276 341.956 205.399 341.956 205.551C341.956 205.702 344.24 205.825 347.057 205.825Z" fill="#455A64"/>
<path d="M326.6 229.258C329.417 229.258 331.701 229.135 331.701 228.983C331.701 228.832 329.417 228.709 326.6 228.709C323.783 228.709 321.5 228.832 321.5 228.983C321.5 229.135 323.783 229.258 326.6 229.258Z" fill="#455A64"/>
<path d="M326.359 233.435C329.176 233.435 331.46 233.311 331.46 233.159C331.46 233.007 329.176 232.884 326.359 232.884C323.542 232.884 321.258 233.007 321.258 233.159C321.258 233.311 323.542 233.435 326.359 233.435Z" fill="#455A64"/>
<path d="M419.85 190.888C419.85 191.04 395.163 191.162 364.719 191.162C334.263 191.162 309.582 191.039 309.582 190.888C309.582 190.737 334.263 190.613 364.719 190.613C395.163 190.613 419.85 190.737 419.85 190.888Z" fill="#263238"/>
<path d="M317.02 188.492C317.741 188.492 318.326 187.913 318.326 187.198C318.326 186.484 317.741 185.905 317.02 185.905C316.298 185.905 315.713 186.484 315.713 187.198C315.713 187.913 316.298 188.492 317.02 188.492Z" fill="white"/>
<path d="M322.631 188.492C323.353 188.492 323.938 187.913 323.938 187.198C323.938 186.484 323.353 185.905 322.631 185.905C321.91 185.905 321.325 186.484 321.325 187.198C321.325 187.913 321.91 188.492 322.631 188.492Z" fill="white"/>
<path d="M328.242 188.492C328.963 188.492 329.548 187.913 329.548 187.198C329.548 186.484 328.963 185.905 328.242 185.905C327.52 185.905 326.935 186.484 326.935 187.198C326.935 187.913 327.52 188.492 328.242 188.492Z" fill="white"/>
<path d="M578 266.315H453.56L462.756 178.586H588.254L578 266.315Z" fill="#263238"/>
<path d="M571.664 266.315H447.225L456.422 178.586H581.918L571.664 266.315Z" fill="#455A64"/>
<path d="M567.049 262.343H451.58L460.114 180.937H576.564L567.049 262.343Z" fill="#EBEBEB"/>
<path d="M466.721 220.174C465.147 235.264 463.994 247.509 464.147 247.525C464.3 247.541 465.7 235.321 467.275 220.231C468.849 205.141 470.001 192.896 469.848 192.88C469.695 192.865 468.295 205.085 466.721 220.174Z" fill="#263238"/>
<path d="M479.388 195.893C482.589 195.893 485.184 195.769 485.184 195.617C485.184 195.465 482.589 195.342 479.388 195.342C476.187 195.342 473.592 195.465 473.592 195.617C473.592 195.769 476.187 195.893 479.388 195.893Z" fill="#263238"/>
<path d="M534.504 195.617C534.504 195.769 524.167 195.893 511.417 195.893C498.663 195.893 488.328 195.769 488.328 195.617C488.328 195.465 498.663 195.343 511.417 195.343C524.167 195.343 534.504 195.466 534.504 195.617Z" fill="#E8505B"/>
<path d="M478.021 224.821C481.223 224.821 483.818 224.698 483.818 224.546C483.818 224.395 481.223 224.272 478.021 224.272C474.82 224.272 472.225 224.395 472.225 224.546C472.225 224.698 474.82 224.821 478.021 224.821Z" fill="#263238"/>
<path d="M533.137 224.546C533.137 224.698 522.8 224.821 510.05 224.821C497.296 224.821 486.961 224.697 486.961 224.546C486.961 224.395 497.296 224.272 510.05 224.272C522.8 224.272 533.137 224.395 533.137 224.546Z" fill="#E8505B"/>
<path d="M494.321 238.157C507.073 238.157 517.409 238.034 517.409 237.882C517.409 237.731 507.073 237.608 494.321 237.608C481.57 237.608 471.233 237.731 471.233 237.882C471.233 238.034 481.57 238.157 494.321 238.157Z" fill="#E8505B"/>
<path d="M482.139 204.059C486.642 204.059 490.293 203.936 490.293 203.785C490.293 203.633 486.642 203.51 482.139 203.51C477.635 203.51 473.984 203.633 473.984 203.785C473.984 203.936 477.635 204.059 482.139 204.059Z" fill="#E8505B"/>
<path d="M481.723 216.034C486.226 216.034 489.877 215.911 489.877 215.759C489.877 215.607 486.226 215.485 481.723 215.485C477.219 215.485 473.568 215.607 473.568 215.759C473.568 215.911 477.219 216.034 481.723 216.034Z" fill="#E8505B"/>
<path d="M495.511 233.147C500.014 233.147 503.665 233.024 503.665 232.872C503.665 232.721 500.014 232.598 495.511 232.598C491.007 232.598 487.356 232.721 487.356 232.872C487.356 233.024 491.007 233.147 495.511 233.147Z" fill="#E8505B"/>
<path d="M528.791 204.059C540.296 204.059 549.624 203.936 549.624 203.785C549.624 203.633 540.296 203.51 528.791 203.51C517.285 203.51 507.958 203.633 507.958 203.785C507.958 203.936 517.285 204.059 528.791 204.059Z" fill="#263238"/>
<path d="M515.933 216.727C527.438 216.727 536.766 216.604 536.766 216.453C536.766 216.301 527.438 216.178 515.933 216.178C504.427 216.178 495.1 216.301 495.1 216.453C495.1 216.604 504.427 216.727 515.933 216.727Z" fill="#263238"/>
<path d="M530.27 233.147C541.776 233.147 551.103 233.024 551.103 232.872C551.103 232.721 541.776 232.598 530.27 232.598C518.764 232.598 509.437 232.721 509.437 232.872C509.437 233.024 518.764 233.147 530.27 233.147Z" fill="#263238"/>
<path d="M492.227 247.814C503.733 247.814 513.06 247.691 513.06 247.539C513.06 247.388 503.733 247.265 492.227 247.265C480.721 247.265 471.394 247.388 471.394 247.539C471.394 247.691 480.721 247.814 492.227 247.814Z" fill="#263238"/>
<path d="M538.303 247.814C549.809 247.814 559.136 247.691 559.136 247.539C559.136 247.388 549.809 247.265 538.303 247.265C526.797 247.265 517.47 247.388 517.47 247.539C517.47 247.691 526.797 247.814 538.303 247.814Z" fill="#263238"/>
<path d="M492.224 252.586C503.73 252.586 513.057 252.464 513.057 252.312C513.057 252.16 503.73 252.038 492.224 252.038C480.718 252.038 471.391 252.16 471.391 252.312C471.391 252.464 480.718 252.586 492.224 252.586Z" fill="#263238"/>
<path d="M494.251 207.498C505.756 207.498 515.084 207.375 515.084 207.223C515.084 207.071 505.756 206.949 494.251 206.949C482.745 206.949 473.417 207.071 473.417 207.223C473.417 207.375 482.745 207.498 494.251 207.498Z" fill="#263238"/>
<path d="M498.606 204.105C501.57 204.105 503.973 203.981 503.973 203.829C503.973 203.677 501.57 203.554 498.606 203.554C495.642 203.554 493.24 203.677 493.24 203.829C493.24 203.981 495.642 204.105 498.606 204.105Z" fill="#455A64"/>
<path d="M477.088 228.753C480.052 228.753 482.454 228.63 482.454 228.479C482.454 228.327 480.052 228.204 477.088 228.204C474.124 228.204 471.722 228.327 471.722 228.479C471.722 228.63 474.124 228.753 477.088 228.753Z" fill="#455A64"/>
<path d="M476.833 233.147C479.797 233.147 482.2 233.024 482.2 232.872C482.2 232.721 479.797 232.598 476.833 232.598C473.869 232.598 471.467 232.721 471.467 232.872C471.467 233.024 473.869 233.147 476.833 233.147Z" fill="#455A64"/>
<path d="M575.18 188.405C575.18 188.557 549.211 188.681 517.185 188.681C485.148 188.681 459.184 188.557 459.184 188.405C459.184 188.253 485.148 188.131 517.185 188.131C549.211 188.131 575.18 188.254 575.18 188.405Z" fill="#263238"/>
<path d="M467.008 185.884C467.768 185.884 468.383 185.275 468.383 184.523C468.383 183.772 467.768 183.163 467.008 183.163C466.249 183.163 465.633 183.772 465.633 184.523C465.633 185.275 466.249 185.884 467.008 185.884Z" fill="white"/>
<path d="M472.911 185.884C473.67 185.884 474.286 185.275 474.286 184.523C474.286 183.772 473.67 183.163 472.911 183.163C472.152 183.163 471.536 183.772 471.536 184.523C471.536 185.275 472.152 185.884 472.911 185.884Z" fill="white"/>
<path d="M478.815 185.884C479.574 185.884 480.19 185.275 480.19 184.523C480.19 183.772 479.574 183.163 478.815 183.163C478.056 183.163 477.44 183.772 477.44 184.523C477.44 185.275 478.056 185.884 478.815 185.884Z" fill="white"/>
<path d="M506.994 162.462H388.164L396.947 78.6892H516.787L506.994 162.462Z" fill="#263238"/>
<path d="M500.945 162.462H382.114L390.897 78.6892H510.737L500.945 162.462Z" fill="#455A64"/>
<path d="M496.539 158.669H386.273L394.423 80.9335H505.624L496.539 158.669Z" fill="#FAFAFA"/>
<path d="M398.393 145.624C398.241 145.608 399.335 133.913 400.838 119.506C402.341 105.093 403.683 93.4261 403.835 93.4419C403.988 93.4577 402.893 105.15 401.39 119.562C399.889 133.969 398.546 145.639 398.393 145.624Z" fill="#263238"/>
<path d="M412.935 96.3165C415.992 96.3165 418.47 96.1936 418.47 96.042C418.47 95.8904 415.992 95.7675 412.935 95.7675C409.878 95.7675 407.4 95.8904 407.4 96.042C407.4 96.1936 409.878 96.3165 412.935 96.3165Z" fill="#263238"/>
<path d="M443.521 96.3165C455.697 96.3165 465.568 96.1936 465.568 96.042C465.568 95.8904 455.697 95.7675 443.521 95.7675C431.344 95.7675 421.474 95.8904 421.474 96.042C421.474 96.1936 431.344 96.3165 443.521 96.3165Z" fill="#E8505B"/>
<path d="M411.63 123.942C414.687 123.942 417.165 123.819 417.165 123.667C417.165 123.516 414.687 123.393 411.63 123.393C408.573 123.393 406.095 123.516 406.095 123.667C406.095 123.819 408.573 123.942 411.63 123.942Z" fill="#263238"/>
<path d="M442.215 123.942C454.391 123.942 464.262 123.819 464.262 123.667C464.262 123.516 454.391 123.393 442.215 123.393C430.039 123.393 420.168 123.516 420.168 123.667C420.168 123.819 430.039 123.942 442.215 123.942Z" fill="#E8505B"/>
<path d="M427.195 136.676C439.372 136.676 449.242 136.553 449.242 136.402C449.242 136.25 439.372 136.127 427.195 136.127C415.019 136.127 405.148 136.25 405.148 136.402C405.148 136.553 415.019 136.676 427.195 136.676Z" fill="#E8505B"/>
<path d="M415.562 104.116C419.863 104.116 423.349 103.993 423.349 103.841C423.349 103.69 419.863 103.567 415.562 103.567C411.262 103.567 407.775 103.69 407.775 103.841C407.775 103.993 411.262 104.116 415.562 104.116Z" fill="#E8505B"/>
<path d="M415.165 115.55C419.466 115.55 422.952 115.428 422.952 115.276C422.952 115.124 419.466 115.001 415.165 115.001C410.865 115.001 407.378 115.124 407.378 115.276C407.378 115.428 410.865 115.55 415.165 115.55Z" fill="#E8505B"/>
<path d="M428.332 131.892C432.633 131.892 436.119 131.769 436.119 131.617C436.119 131.466 432.633 131.343 428.332 131.343C424.032 131.343 420.545 131.466 420.545 131.617C420.545 131.769 424.032 131.892 428.332 131.892Z" fill="#E8505B"/>
<path d="M460.112 104.116C471.098 104.116 480.005 103.993 480.005 103.841C480.005 103.69 471.098 103.567 460.112 103.567C449.125 103.567 440.218 103.69 440.218 103.841C440.218 103.993 449.125 104.116 460.112 104.116Z" fill="#263238"/>
<path d="M447.833 116.212C458.82 116.212 467.726 116.089 467.726 115.938C467.726 115.786 458.82 115.663 447.833 115.663C436.846 115.663 427.939 115.786 427.939 115.938C427.939 116.089 436.846 116.212 447.833 116.212Z" fill="#263238"/>
<path d="M461.524 131.892C472.51 131.892 481.417 131.769 481.417 131.617C481.417 131.466 472.51 131.343 461.524 131.343C450.537 131.343 441.63 131.466 441.63 131.617C441.63 131.769 450.537 131.892 461.524 131.892Z" fill="#263238"/>
<path d="M425.196 145.898C436.183 145.898 445.089 145.775 445.089 145.624C445.089 145.472 436.183 145.349 425.196 145.349C414.209 145.349 405.303 145.472 405.303 145.624C405.303 145.775 414.209 145.898 425.196 145.898Z" fill="#263238"/>
<path d="M469.196 145.898C480.183 145.898 489.089 145.775 489.089 145.624C489.089 145.472 480.183 145.349 469.196 145.349C458.209 145.349 449.303 145.472 449.303 145.624C449.303 145.775 458.209 145.898 469.196 145.898Z" fill="#263238"/>
<path d="M425.193 150.455C436.18 150.455 445.086 150.333 445.086 150.181C445.086 150.029 436.18 149.907 425.193 149.907C414.206 149.907 405.3 150.029 405.3 150.181C405.3 150.333 414.206 150.455 425.193 150.455Z" fill="#263238"/>
<path d="M427.129 107.399C438.116 107.399 447.023 107.276 447.023 107.124C447.023 106.973 438.116 106.85 427.129 106.85C416.142 106.85 407.236 106.973 407.236 107.124C407.236 107.276 416.142 107.399 427.129 107.399Z" fill="#263238"/>
<path d="M431.288 104.159C434.118 104.159 436.412 104.036 436.412 103.883C436.412 103.731 434.118 103.608 431.288 103.608C428.458 103.608 426.164 103.731 426.164 103.883C426.164 104.036 428.458 104.159 431.288 104.159Z" fill="#455A64"/>
<path d="M410.739 127.696C413.569 127.696 415.863 127.573 415.863 127.421C415.863 127.27 413.569 127.147 410.739 127.147C407.908 127.147 405.614 127.27 405.614 127.421C405.614 127.573 407.908 127.696 410.739 127.696Z" fill="#455A64"/>
<path d="M410.496 131.892C413.326 131.892 415.621 131.769 415.621 131.617C415.621 131.466 413.326 131.343 410.496 131.343C407.666 131.343 405.372 131.466 405.372 131.617C405.372 131.769 407.666 131.892 410.496 131.892Z" fill="#455A64"/>
<path d="M504.41 89.1549C504.41 89.307 479.611 89.4305 449.029 89.4305C418.435 89.4305 393.642 89.307 393.642 89.1549C393.642 89.0029 418.435 88.8805 449.029 88.8805C479.611 88.8794 504.41 89.0029 504.41 89.1549Z" fill="#263238"/>
<path d="M401.114 86.747C401.839 86.747 402.427 86.1652 402.427 85.4475C402.427 84.7298 401.839 84.148 401.114 84.148C400.389 84.148 399.801 84.7298 399.801 85.4475C399.801 86.1652 400.389 86.747 401.114 86.747Z" fill="white"/>
<path d="M406.751 86.7459C407.476 86.7459 408.063 86.1646 408.063 85.4475C408.063 84.7304 407.476 84.149 406.751 84.149C406.027 84.149 405.439 84.7304 405.439 85.4475C405.439 86.1646 406.027 86.7459 406.751 86.7459Z" fill="white"/>
<path d="M412.389 86.7459C413.113 86.7459 413.701 86.1646 413.701 85.4475C413.701 84.7304 413.113 84.149 412.389 84.149C411.664 84.149 411.077 84.7304 411.077 85.4475C411.077 86.1646 411.664 86.7459 412.389 86.7459Z" fill="white"/>
<path d="M305.683 478.936H296.43V491.434H305.683V478.936Z" fill="#263238"/>
<path d="M437.457 329.139H355.309V333.093H437.457V329.139Z" fill="#263238"/>
<path d="M450.187 333.093L465.597 275.947H401.455L387.501 333.093H450.187Z" fill="#263238"/>
<path d="M391.345 328.767H448.647L461.984 278.588H404.387L391.345 328.767Z" fill="#F5F5F5"/>
<path d="M405.813 288.306L402.262 302.519H440.255L444.308 288.306H405.813Z" fill="#E0E0E0"/>
<path d="M421.41 286.708C429.629 286.708 436.293 286.585 436.293 286.434C436.293 286.282 429.629 286.159 421.41 286.159C413.19 286.159 406.526 286.282 406.526 286.434C406.526 286.585 413.19 286.708 421.41 286.708Z" fill="#455A64"/>
<path d="M412.977 291.301C416.291 291.301 418.976 291.178 418.976 291.026C418.976 290.874 416.291 290.75 412.977 290.75C409.664 290.75 406.979 290.874 406.979 291.026C406.979 291.178 409.664 291.301 412.977 291.301Z" fill="#263238"/>
<path d="M424.692 291.078C426.848 291.078 428.597 290.954 428.597 290.802C428.597 290.65 426.848 290.526 424.692 290.526C422.535 290.526 420.787 290.65 420.787 290.802C420.787 290.954 422.535 291.078 424.692 291.078Z" fill="#263238"/>
<path d="M423.051 293.877C432.115 293.877 439.463 293.754 439.463 293.603C439.463 293.451 432.115 293.328 423.051 293.328C413.987 293.328 406.639 293.451 406.639 293.603C406.639 293.754 413.987 293.877 423.051 293.877Z" fill="#455A64"/>
<path d="M411.279 296.23C414.217 296.23 416.599 296.107 416.599 295.955C416.599 295.802 414.217 295.679 411.279 295.679C408.342 295.679 405.96 295.802 405.96 295.955C405.96 296.107 408.342 296.23 411.279 296.23Z" fill="#317EFF"/>
<path d="M421.296 299.591C429.704 299.591 436.52 299.468 436.52 299.316C436.52 299.164 429.704 299.04 421.296 299.04C412.889 299.04 406.073 299.164 406.073 299.316C406.073 299.468 412.889 299.591 421.296 299.591Z" fill="#455A64"/>
<path d="M408.223 306.871C411.474 306.871 414.109 306.748 414.109 306.597C414.109 306.445 411.474 306.322 408.223 306.322C404.973 306.322 402.337 306.445 402.337 306.597C402.337 306.748 404.973 306.871 408.223 306.871Z" fill="#455A64"/>
<path d="M420.166 306.908C422.385 306.926 424.185 306.818 424.186 306.666C424.188 306.514 422.39 306.377 420.17 306.359C417.951 306.34 416.151 306.449 416.15 306.6C416.149 306.752 417.947 306.889 420.166 306.908Z" fill="#263238"/>
<path d="M428.143 306.647C429.081 306.647 429.842 306.524 429.842 306.372C429.842 306.22 429.081 306.096 428.143 306.096C427.206 306.096 426.445 306.22 426.445 306.372C426.445 306.524 427.206 306.647 428.143 306.647Z" fill="#263238"/>
<path d="M404.432 309.784C405.464 309.784 406.3 309.661 406.3 309.509C406.3 309.358 405.464 309.235 404.432 309.235C403.401 309.235 402.564 309.358 402.564 309.509C402.564 309.661 403.401 309.784 404.432 309.784Z" fill="#317EFF"/>
<path d="M413.034 309.784C415.503 309.784 417.504 309.661 417.504 309.509C417.504 309.358 415.503 309.235 413.034 309.235C410.565 309.235 408.563 309.358 408.563 309.509C408.563 309.661 410.565 309.784 413.034 309.784Z" fill="#263238"/>
<path d="M432.274 309.448C438.869 309.448 444.215 309.325 444.215 309.174C444.215 309.022 438.869 308.899 432.274 308.899C425.68 308.899 420.334 309.022 420.334 309.174C420.334 309.325 425.68 309.448 432.274 309.448Z" fill="#455A64"/>
<path d="M403.81 312.808C404.872 312.808 405.734 312.685 405.734 312.533C405.734 312.38 404.872 312.257 403.81 312.257C402.747 312.257 401.885 312.38 401.885 312.533C401.885 312.685 402.747 312.808 403.81 312.808Z" fill="#263238"/>
<path d="M409.299 312.696C410.58 312.696 411.619 312.573 411.619 312.422C411.619 312.27 410.58 312.147 409.299 312.147C408.017 312.147 406.979 312.27 406.979 312.422C406.979 312.573 408.017 312.696 409.299 312.696Z" fill="#263238"/>
<path d="M421.635 312.472C425.792 312.472 429.162 312.349 429.162 312.197C429.162 312.045 425.792 311.921 421.635 311.921C417.479 311.921 414.109 312.045 414.109 312.197C414.109 312.349 417.479 312.472 421.635 312.472Z" fill="#455A64"/>
<path d="M410.771 317.737C415.803 317.737 419.882 317.614 419.882 317.461C419.882 317.309 415.803 317.186 410.771 317.186C405.739 317.186 401.659 317.309 401.659 317.461C401.659 317.614 405.739 317.737 410.771 317.737Z" fill="#455A64"/>
<path d="M426.389 317.513C428.671 317.513 430.521 317.39 430.521 317.238C430.521 317.085 428.671 316.962 426.389 316.962C424.108 316.962 422.258 317.085 422.258 317.238C422.258 317.39 424.108 317.513 426.389 317.513Z" fill="#317EFF"/>
<path d="M439.463 317.513C443.245 317.513 446.311 317.39 446.311 317.238C446.311 317.085 443.245 316.962 439.463 316.962C435.681 316.962 432.615 317.085 432.615 317.238C432.615 317.39 435.681 317.513 439.463 317.513Z" fill="#263238"/>
<path d="M441.216 286.485C441.997 286.485 442.631 286.362 442.631 286.21C442.631 286.058 441.997 285.934 441.216 285.934C440.435 285.934 439.802 286.058 439.802 286.21C439.802 286.362 440.435 286.485 441.216 286.485Z" fill="#263238"/>
<path d="M410.657 284.581C412.376 284.581 413.77 284.458 413.77 284.306C413.77 284.153 412.376 284.03 410.657 284.03C408.938 284.03 407.545 284.153 407.545 284.306C407.545 284.458 408.938 284.581 410.657 284.581Z" fill="#317EFF"/>
<path d="M461.025 282.194C441.622 282.194 422.822 282.194 403.418 282.194L404.386 278.588H461.983L461.025 282.194Z" fill="#EBEBEB"/>
<path d="M406.813 281.033C407.16 281.033 407.442 280.754 407.442 280.41C407.442 280.066 407.16 279.787 406.813 279.787C406.465 279.787 406.184 280.066 406.184 280.41C406.184 280.754 406.465 281.033 406.813 281.033Z" fill="#FAFAFA"/>
<path d="M408.98 281.033C409.328 281.033 409.61 280.754 409.61 280.41C409.61 280.066 409.328 279.787 408.98 279.787C408.633 279.787 408.351 280.066 408.351 280.41C408.351 280.754 408.633 281.033 408.98 281.033Z" fill="#FAFAFA"/>
<path d="M411.148 281.033C411.495 281.033 411.777 280.754 411.777 280.41C411.777 280.066 411.495 279.787 411.148 279.787C410.8 279.787 410.519 280.066 410.519 280.41C410.519 280.754 410.8 281.033 411.148 281.033Z" fill="#FAFAFA"/>
<path d="M531.218 338.407H394.647V417.274H531.218V338.407Z" fill="#263238"/>
<path d="M456.863 338.407H394.647V417.274H456.863V338.407Z" fill="#455A64"/>
<path d="M450.526 365.196C450.518 365.188 450.512 365.051 450.505 364.789C450.499 364.501 450.492 364.12 450.482 363.638C450.47 362.602 450.454 361.133 450.432 359.258C450.407 355.452 450.37 350.004 450.324 343.287L450.525 343.485C437.588 343.505 419.932 343.532 400.479 343.561C400.228 343.807 400.813 343.227 400.753 343.289V343.294V343.306V343.328V343.373V343.463V343.644V344.005V344.724V346.155C400.753 347.107 400.753 348.055 400.753 348.997C400.752 350.88 400.751 352.741 400.751 354.573C400.748 358.239 400.745 361.792 400.74 365.196L400.476 364.934C414.973 364.985 427.444 365.028 436.328 365.059C440.75 365.089 444.279 365.114 446.74 365.13C447.934 365.145 448.868 365.155 449.537 365.163C449.837 365.169 450.077 365.175 450.268 365.18C450.433 365.185 450.521 365.191 450.526 365.196C450.531 365.202 450.456 365.207 450.3 365.213C450.117 365.217 449.888 365.222 449.601 365.229C448.945 365.237 448.029 365.249 446.859 365.261C444.413 365.279 440.905 365.303 436.507 365.333C427.579 365.364 415.047 365.407 400.477 365.458L400.212 365.459V365.196C400.209 361.792 400.206 358.239 400.202 354.573C400.202 352.741 400.201 350.88 400.2 348.997C400.2 348.054 400.2 347.107 400.198 346.155V344.724V344.005V343.644V343.463V343.373V343.328V343.306V343.294V343.289C400.137 343.346 400.725 342.766 400.48 343.011C419.933 343.041 437.589 343.069 450.526 343.088H450.726L450.725 343.287C450.679 350.055 450.643 355.543 450.617 359.377C450.595 361.234 450.579 362.689 450.568 363.714C450.558 364.18 450.55 364.55 450.545 364.829C450.539 365.079 450.533 365.203 450.526 365.196Z" fill="#263238"/>
<path d="M427.63 354.241C427.528 354.279 427.594 353.394 426.67 352.722C426.229 352.407 425.528 352.245 424.864 352.502C424.205 352.738 423.644 353.434 423.65 354.241C423.644 355.049 424.205 355.746 424.864 355.981C425.528 356.238 426.229 356.076 426.67 355.76C427.594 355.088 427.528 354.203 427.63 354.241C427.661 354.24 427.718 354.43 427.667 354.782C427.618 355.125 427.423 355.648 426.908 356.071C426.412 356.492 425.549 356.755 424.688 356.458C423.836 356.189 423.084 355.294 423.094 354.241C423.084 353.188 423.836 352.294 424.688 352.024C425.549 351.728 426.412 351.99 426.908 352.412C427.422 352.833 427.617 353.358 427.667 353.701C427.718 354.052 427.661 354.242 427.63 354.241Z" fill="#263238"/>
<path d="M450.526 389.313C450.518 389.306 450.512 389.167 450.505 388.906C450.499 388.617 450.492 388.236 450.482 387.754C450.47 386.719 450.454 385.249 450.432 383.374C450.407 379.57 450.37 374.12 450.324 367.403L450.525 367.602C437.588 367.622 419.932 367.649 400.479 367.679C400.228 367.924 400.813 367.344 400.753 367.405V367.412V367.423V367.445V367.49V367.581V367.761V368.121V368.84V370.272C400.753 371.225 400.753 372.173 400.753 373.113C400.752 374.996 400.751 376.858 400.751 378.69C400.748 382.355 400.745 385.909 400.74 389.312L400.476 389.051C414.973 389.102 427.444 389.144 436.328 389.175C440.75 389.205 444.279 389.231 446.74 389.247C447.934 389.261 448.868 389.272 449.537 389.279C449.837 389.287 450.077 389.292 450.268 389.296C450.433 389.302 450.521 389.307 450.526 389.313C450.531 389.318 450.456 389.324 450.3 389.329C450.117 389.333 449.888 389.339 449.601 389.346C448.945 389.353 448.029 389.365 446.859 389.379C444.413 389.396 440.905 389.42 436.507 389.45C427.579 389.48 415.047 389.523 400.477 389.574L400.212 389.575V389.312C400.209 385.909 400.206 382.355 400.202 378.69C400.202 376.858 400.201 374.996 400.2 373.113C400.2 372.172 400.2 371.225 400.198 370.272V368.84V368.121V367.761V367.581V367.49V367.445V367.423V367.412V367.405C400.137 367.463 400.725 366.883 400.48 367.129C419.933 367.158 437.589 367.186 450.526 367.205L450.726 367.206L450.725 367.403C450.679 374.171 450.643 379.66 450.617 383.493C450.595 385.351 450.579 386.806 450.568 387.83C450.558 388.297 450.55 388.666 450.545 388.946C450.539 389.195 450.533 389.318 450.526 389.313Z" fill="#263238"/>
<path d="M427.63 378.358C427.528 378.396 427.594 377.511 426.67 376.839C426.229 376.523 425.528 376.362 424.864 376.618C424.205 376.855 423.644 377.551 423.65 378.358C423.644 379.166 424.205 379.862 424.864 380.098C425.528 380.354 426.229 380.192 426.67 379.878C427.594 379.204 427.528 378.32 427.63 378.358C427.661 378.357 427.718 378.548 427.667 378.899C427.618 379.242 427.423 379.765 426.908 380.188C426.412 380.609 425.549 380.872 424.688 380.576C423.836 380.306 423.084 379.411 423.094 378.358C423.084 377.305 423.836 376.41 424.688 376.141C425.549 375.844 426.412 376.107 426.908 376.528C427.422 376.949 427.617 377.474 427.667 377.817C427.718 378.169 427.661 378.36 427.63 378.358Z" fill="#263238"/>
<path d="M450.526 413.428C450.518 413.421 450.512 413.284 450.505 413.022C450.499 412.734 450.492 412.353 450.482 411.87C450.47 410.835 450.454 409.365 450.432 407.489C450.407 403.685 450.37 398.237 450.324 391.519L450.525 391.717C437.588 391.738 419.932 391.764 400.479 391.794C400.228 392.039 400.813 391.459 400.753 391.522V391.527V391.538V391.561V391.606V391.696V391.876V392.236V392.956V394.388C400.753 395.34 400.753 396.288 400.753 397.229C400.752 399.112 400.751 400.973 400.751 402.805C400.748 406.471 400.745 410.025 400.74 413.428L400.476 413.167C414.973 413.217 427.444 413.261 436.328 413.291C440.75 413.322 444.279 413.346 446.74 413.363C447.934 413.377 448.868 413.387 449.537 413.396C449.837 413.402 450.077 413.407 450.268 413.412C450.433 413.418 450.521 413.423 450.526 413.428C450.531 413.434 450.456 413.439 450.3 413.445C450.117 413.45 449.888 413.455 449.601 413.461C448.945 413.47 448.029 413.48 446.859 413.494C444.413 413.512 440.905 413.535 436.507 413.566C427.579 413.596 415.047 413.64 400.477 413.69H400.212V413.428C400.209 410.025 400.206 406.471 400.202 402.805C400.202 400.973 400.201 399.112 400.2 397.229C400.2 396.287 400.2 395.34 400.198 394.388V392.956V392.236V391.876V391.696V391.606V391.561V391.538V391.527V391.522C400.137 391.579 400.725 390.999 400.48 391.244C419.933 391.274 437.589 391.301 450.526 391.321H450.726L450.725 391.519C450.679 398.287 450.643 403.776 450.617 407.61C450.595 409.467 450.579 410.921 450.568 411.946C450.558 412.413 450.55 412.781 450.545 413.062C450.539 413.311 450.533 413.436 450.526 413.428Z" fill="#263238"/>
<path d="M427.63 402.474C427.528 402.512 427.594 401.626 426.67 400.954C426.229 400.639 425.528 400.478 424.864 400.733C424.205 400.971 423.644 401.666 423.65 402.473C423.644 403.282 424.205 403.977 424.864 404.214C425.528 404.47 426.229 404.309 426.67 403.993C427.594 403.321 427.528 402.436 427.63 402.474C427.661 402.472 427.718 402.663 427.667 403.014C427.618 403.358 427.423 403.881 426.908 404.303C426.412 404.725 425.549 404.987 424.688 404.691C423.836 404.422 423.084 403.526 423.094 402.473C423.084 401.42 423.836 400.525 424.688 400.257C425.549 399.96 426.412 400.222 426.908 400.643C427.422 401.066 427.617 401.589 427.667 401.932C427.718 402.285 427.661 402.475 427.63 402.474Z" fill="#263238"/>
<path d="M303.693 481.466L212.414 481.403V338.407H303.693V481.466Z" fill="#263238"/>
<path d="M536.178 332.906H208.01V340.401H536.178V332.906Z" fill="#263238"/>
<path d="M222.59 340.401H212.414V492.101H222.59V340.401Z" fill="#263238"/>
<path d="M531.218 340.401H521.043V492.137H531.218V340.401Z" fill="#263238"/>
<path d="M467.039 340.401H456.863V492.137H467.039V340.401Z" fill="#263238"/>
<path d="M232.313 333.181C244.378 333.181 254.159 333.058 254.159 332.906C254.159 332.753 244.378 332.63 232.313 332.63C220.247 332.63 210.466 332.753 210.466 332.906C210.466 333.058 220.247 333.181 232.313 333.181Z" fill="#455A64"/>
<path d="M350.108 484.715L350.368 473.866L329.837 473.255L329.287 489.124L330.557 489.242C336.212 489.721 359.35 491.288 363.171 490.265C367.433 489.122 350.108 484.715 350.108 484.715Z" fill="#317EFF"/>
<g opacity="0.4">
<path d="M358.564 487.17C358.564 487.17 364.624 489.097 363.831 490.071C363.038 491.045 339.597 490.333 329.286 489.124L329.333 488.67L356.667 489.732C356.667 489.732 357.367 487.182 358.564 487.17Z" fill="white"/>
</g>
<path d="M329.01 488.647C329.01 488.656 329.131 488.672 329.362 488.696C329.666 488.723 329.999 488.753 330.375 488.787C331.388 488.861 332.633 488.952 334.101 489.059C337.25 489.267 341.603 489.498 346.415 489.65C351.229 489.798 355.588 489.84 358.744 489.828C360.217 489.811 361.465 489.798 362.48 489.788C362.858 489.777 363.191 489.768 363.496 489.759C363.728 489.751 363.85 489.741 363.85 489.734C363.85 489.727 363.728 489.717 363.496 489.711C363.189 489.705 362.857 489.699 362.479 489.693C361.465 489.682 360.217 489.67 358.745 489.655C355.591 489.622 351.234 489.552 346.424 489.405C341.614 489.254 337.262 489.051 334.112 488.888C332.642 488.812 331.395 488.747 330.382 488.693C330.005 488.676 329.672 488.662 329.367 488.649C329.134 488.638 329.011 488.638 329.01 488.647Z" fill="#263238"/>
<path d="M356.652 490.046C356.728 490.058 356.813 489.179 357.404 488.306C357.98 487.421 358.761 486.995 358.72 486.93C358.707 486.868 357.816 487.224 357.196 488.169C356.566 489.108 356.59 490.059 356.652 490.046Z" fill="#263238"/>
<path d="M351.141 485.896C350.827 486.354 350.619 486.756 350.676 486.794C350.733 486.832 351.034 486.492 351.348 486.034C351.662 485.577 351.87 485.174 351.813 485.136C351.756 485.098 351.455 485.438 351.141 485.896Z" fill="#263238"/>
<path d="M349.635 485.265C349.272 485.569 349.013 485.857 349.058 485.909C349.102 485.961 349.433 485.758 349.796 485.454C350.159 485.15 350.418 484.862 350.373 484.81C350.329 484.758 349.998 484.962 349.635 485.265Z" fill="#263238"/>
<path d="M349.129 483.901C348.537 483.877 348.055 483.912 348.052 483.98C348.049 484.048 348.527 484.122 349.119 484.147C349.711 484.171 350.193 484.136 350.196 484.068C350.199 484 349.721 483.926 349.129 483.901Z" fill="#263238"/>
<path d="M347.743 482.587C347.718 482.648 348.233 482.897 348.927 482.967C349.621 483.042 350.178 482.906 350.166 482.843C350.157 482.772 349.613 482.795 348.954 482.723C348.295 482.656 347.768 482.52 347.743 482.587Z" fill="#263238"/>
<path d="M351.44 485.07C351.438 485.098 351.942 485.175 352.759 485.102C353.167 485.066 353.65 484.986 354.174 484.838C354.434 484.756 354.705 484.695 354.988 484.535C355.121 484.453 355.269 484.336 355.327 484.139C355.388 483.945 355.288 483.721 355.143 483.611C353.903 482.926 352.618 483.589 352.13 484.22C351.862 484.542 351.734 484.859 351.672 485.079C351.613 485.301 351.613 485.428 351.628 485.431C351.674 485.449 351.733 484.92 352.263 484.335C352.526 484.049 352.916 483.775 353.413 483.645C353.884 483.523 354.547 483.506 354.982 483.799C355.187 483.959 355.098 484.2 354.861 484.331C354.639 484.463 354.356 484.538 354.11 484.621C353.605 484.776 353.137 484.873 352.74 484.931C351.944 485.044 351.441 485.029 351.44 485.07Z" fill="#263238"/>
<path d="M351.779 485.145C351.799 485.16 352.002 484.833 351.96 484.244C351.936 483.955 351.84 483.609 351.629 483.279C351.405 482.982 351.118 482.574 350.552 482.58C350.245 482.609 350.085 482.949 350.126 483.171C350.143 483.401 350.24 483.6 350.332 483.762C350.518 484.094 350.732 484.364 350.93 484.571C351.331 484.984 351.654 485.146 351.669 485.122C351.692 485.091 351.413 484.88 351.063 484.455C350.888 484.244 350.7 483.974 350.535 483.654C350.362 483.373 350.253 482.874 350.586 482.825C350.918 482.803 351.244 483.138 351.437 483.405C351.635 483.694 351.741 484.002 351.784 484.265C351.87 484.799 351.737 485.133 351.779 485.145Z" fill="#263238"/>
<path d="M329.602 483.1C329.605 483.147 330.192 483.063 331.117 483.199C332.032 483.328 333.299 483.741 334.384 484.65C335.468 485.561 336.084 486.732 336.363 487.605C336.648 488.486 336.661 489.072 336.707 489.068C336.722 489.068 336.734 488.921 336.721 488.657C336.707 488.394 336.656 488.013 336.531 487.555C336.29 486.645 335.676 485.413 334.545 484.462C333.414 483.514 332.085 483.114 331.139 483.026C330.662 482.979 330.273 482.991 330.008 483.021C329.744 483.05 329.6 483.087 329.602 483.1Z" fill="#263238"/>
<path d="M331.951 478.873C332.052 476.568 332.078 474.697 332.009 474.694C331.94 474.691 331.802 476.557 331.701 478.862C331.6 481.167 331.574 483.038 331.643 483.041C331.712 483.044 331.85 481.178 331.951 478.873Z" fill="#263238"/>
<path d="M339.379 487.283C339.369 487.346 340.7 487.604 342.367 487.667C344.035 487.736 345.383 487.585 345.377 487.52C345.373 487.45 344.03 487.49 342.377 487.421C340.726 487.359 339.39 487.212 339.379 487.283Z" fill="#263238"/>
<path d="M335.356 487.154C335.305 487.203 335.457 487.439 335.584 487.748C335.716 488.056 335.778 488.329 335.85 488.327C335.916 488.328 335.965 488.008 335.815 487.653C335.666 487.296 335.402 487.106 335.356 487.154Z" fill="#263238"/>
<path d="M334.374 485.569C334.169 485.349 333.961 485.209 333.91 485.255C333.86 485.302 333.986 485.517 334.192 485.737C334.398 485.957 334.605 486.097 334.656 486.051C334.706 486.004 334.58 485.789 334.374 485.569Z" fill="#263238"/>
<path d="M331.755 484.322C331.768 484.39 332.041 484.397 332.338 484.512C332.639 484.619 332.849 484.791 332.905 484.747C332.961 484.712 332.797 484.417 332.426 484.282C332.054 484.142 331.736 484.257 331.755 484.322Z" fill="#263238"/>
<path d="M330.567 483.882C330.399 483.811 330.241 483.805 330.214 483.867C330.188 483.93 330.302 484.038 330.47 484.108C330.638 484.179 330.796 484.185 330.823 484.123C330.85 484.06 330.735 483.952 330.567 483.882Z" fill="#263238"/>
<g opacity="0.3">
<path d="M329.647 482.558L350.168 482.843L350.21 480.396L329.523 481.266L329.647 482.558Z" fill="black"/>
</g>
<path d="M382.494 486.401L382.465 475.549L361.924 475.475L361.798 491.352L363.071 491.438C368.739 491.769 391.909 492.731 395.701 491.607C399.932 490.354 382.494 486.401 382.494 486.401Z" fill="#317EFF"/>
<g opacity="0.4">
<path d="M391.014 488.634C391.014 488.634 397.124 490.402 396.357 491.397C395.59 492.39 372.138 492.292 361.798 491.352L361.833 490.897L389.187 491.244C389.187 491.244 389.817 488.678 391.014 488.634Z" fill="white"/>
</g>
<path d="M361.51 490.884C361.51 490.892 361.631 490.906 361.863 490.923C362.167 490.943 362.501 490.964 362.877 490.988C363.892 491.036 365.139 491.095 366.61 491.162C369.763 491.288 374.12 491.404 378.935 491.429C383.751 491.452 388.11 491.38 391.264 491.285C392.736 491.23 393.983 491.184 394.998 491.148C395.374 491.126 395.708 491.108 396.012 491.092C396.244 491.077 396.365 491.065 396.365 491.057C396.365 491.048 396.243 491.043 396.01 491.042C395.705 491.045 395.371 491.047 394.995 491.051C393.979 491.067 392.731 491.087 391.26 491.111C388.106 491.16 383.749 491.206 378.936 491.182C374.124 491.158 369.768 491.069 366.615 490.988C365.143 490.95 363.896 490.917 362.881 490.891C362.504 490.884 362.17 490.877 361.865 490.872C361.632 490.873 361.511 490.876 361.51 490.884Z" fill="#263238"/>
<path d="M389.179 491.56C389.255 491.57 389.317 490.687 389.884 489.799C390.436 488.9 391.206 488.454 391.163 488.39C391.148 488.328 390.267 488.708 389.673 489.67C389.067 490.623 389.117 491.575 389.179 491.56Z" fill="#263238"/>
<path d="M383.568 487.612C383.267 488.078 383.069 488.486 383.127 488.523C383.185 488.559 383.477 488.212 383.779 487.746C384.08 487.28 384.278 486.872 384.22 486.836C384.162 486.799 383.87 487.147 383.568 487.612Z" fill="#263238"/>
<path d="M382.006 486.957C381.651 487.27 381.399 487.565 381.445 487.615C381.49 487.666 381.815 487.453 382.171 487.14C382.526 486.826 382.778 486.531 382.732 486.481C382.687 486.43 382.362 486.643 382.006 486.957Z" fill="#263238"/>
<path d="M381.481 485.586C380.889 485.577 380.407 485.625 380.406 485.693C380.405 485.761 380.885 485.823 381.477 485.832C382.07 485.841 382.551 485.794 382.552 485.726C382.553 485.658 382.074 485.595 381.481 485.586Z" fill="#263238"/>
<path d="M380.074 484.335C380.051 484.397 380.572 484.632 381.269 484.685C381.964 484.742 382.518 484.591 382.504 484.528C382.493 484.458 381.949 484.495 381.288 484.44C380.627 484.39 380.096 484.269 380.074 484.335Z" fill="#263238"/>
<path d="M383.836 486.72C383.835 486.748 384.34 486.812 385.155 486.718C385.562 486.672 386.044 486.578 386.562 486.417C386.819 486.327 387.089 486.262 387.368 486.092C387.499 486.007 387.644 485.886 387.696 485.688C387.752 485.491 387.647 485.272 387.499 485.165C386.24 484.513 384.973 485.209 384.503 485.852C384.243 486.182 384.124 486.502 384.068 486.722C384.014 486.945 384.018 487.073 384.032 487.075C384.078 487.093 384.124 486.562 384.638 485.963C384.892 485.671 385.275 485.385 385.769 485.242C386.235 485.107 386.899 485.073 387.341 485.354C387.55 485.508 387.467 485.752 387.233 485.889C387.016 486.027 386.734 486.11 386.49 486.2C385.99 486.368 385.523 486.476 385.129 486.544C384.339 486.681 383.836 486.68 383.836 486.72Z" fill="#263238"/>
<path d="M384.178 486.787C384.198 486.801 384.393 486.468 384.334 485.881C384.303 485.593 384.198 485.249 383.978 484.924C383.745 484.634 383.448 484.233 382.881 484.254C382.575 484.291 382.425 484.635 382.472 484.855C382.494 485.084 382.598 485.281 382.694 485.44C382.889 485.768 383.11 486.033 383.313 486.233C383.726 486.635 384.052 486.789 384.067 486.766C384.09 486.734 383.804 486.529 383.442 486.115C383.262 485.907 383.067 485.644 382.893 485.329C382.714 485.051 382.591 484.556 382.923 484.498C383.254 484.468 383.59 484.794 383.79 485.055C383.996 485.339 384.11 485.644 384.16 485.906C384.258 486.438 384.134 486.777 384.178 486.787Z" fill="#263238"/>
<path d="M361.954 485.324C361.958 485.37 362.541 485.271 363.469 485.384C364.389 485.489 365.666 485.867 366.775 486.748C367.882 487.631 368.531 488.785 368.832 489.651C369.142 490.523 369.169 491.108 369.216 491.103C369.23 491.102 369.238 490.955 369.218 490.693C369.197 490.43 369.136 490.051 368.998 489.596C368.732 488.693 368.086 487.476 366.931 486.555C365.776 485.637 364.436 485.272 363.488 485.211C363.01 485.176 362.621 485.197 362.358 485.234C362.093 485.27 361.952 485.309 361.954 485.324Z" fill="#263238"/>
<path d="M364.204 481.052C364.244 478.745 364.221 476.874 364.152 476.873C364.084 476.872 363.996 478.741 363.957 481.047C363.917 483.354 363.94 485.225 364.009 485.226C364.077 485.227 364.165 483.358 364.204 481.052Z" fill="#263238"/>
<path d="M371.839 489.248C371.83 489.313 373.167 489.534 374.837 489.556C376.506 489.581 377.849 489.395 377.842 489.33C377.835 489.259 376.493 489.334 374.841 489.309C373.187 489.29 371.847 489.177 371.839 489.248Z" fill="#263238"/>
<path d="M367.814 489.225C367.764 489.275 367.922 489.507 368.058 489.812C368.198 490.116 368.267 490.389 368.338 490.383C368.405 490.383 368.446 490.062 368.286 489.712C368.127 489.359 367.858 489.176 367.814 489.225Z" fill="#263238"/>
<path d="M366.781 487.664C366.57 487.449 366.358 487.314 366.309 487.362C366.26 487.41 366.391 487.622 366.603 487.836C366.815 488.051 367.026 488.186 367.076 488.138C367.125 488.09 366.993 487.878 366.781 487.664Z" fill="#263238"/>
<path d="M364.137 486.487C364.151 486.555 364.424 486.554 364.725 486.661C365.029 486.76 365.243 486.927 365.298 486.882C365.353 486.845 365.181 486.553 364.806 486.428C364.433 486.3 364.117 486.425 364.137 486.487Z" fill="#263238"/>
<path d="M362.91 486.075C362.74 486.009 362.582 486.007 362.556 486.07C362.531 486.133 362.649 486.238 362.819 486.304C362.989 486.37 363.147 486.372 363.172 486.309C363.197 486.245 363.08 486.141 362.91 486.075Z" fill="#263238"/>
<g opacity="0.3">
<path d="M361.984 484.779L382.504 484.528L382.483 482.081L361.826 483.491L361.984 484.779Z" fill="black"/>
</g>
<path d="M337.141 300.641L345.366 325.153C347.588 331.773 353.431 332.906 360.479 332.906H406.232V322.747L364.432 316.841L354.472 291.657L337.141 300.641Z" fill="#FFBE9D"/>
<path d="M411.261 320.637L414.89 318.937C414.89 318.937 418.802 311.453 419.703 311.751C420.605 312.051 420.863 314.254 419.292 317.693L424.115 316.33C424.115 316.33 434.571 321.11 434.108 321.755C433.645 322.4 432.79 323.924 430.511 322.771C428.234 321.619 425.251 320.266 425.251 320.266L419.617 321.859L426.882 322.771L433.714 328.924C433.714 328.924 431.469 330.584 429.535 328.821L411.789 332.594L406.231 332.906V322.747L411.261 320.637Z" fill="#FFBE9D"/>
<path d="M429.536 328.821C429.461 328.871 429.13 328.351 428.491 327.661C428.169 327.323 427.737 326.97 427.2 326.672C426.684 326.387 426.013 326.262 425.284 326.177C422.327 325.83 419.938 325.428 419.958 325.276C419.977 325.125 422.388 325.283 425.352 325.631C426.095 325.72 426.852 325.865 427.457 326.233C428.036 326.585 428.482 327.007 428.791 327.406C429.392 328.214 429.589 328.79 429.536 328.821Z" fill="#EB996E"/>
<path d="M426.759 329.526C426.692 329.526 426.637 329.163 426.139 329.059C425.631 328.967 424.824 328.872 423.983 328.786C422.279 328.615 420.878 328.628 420.863 328.472C420.845 328.326 422.271 328.062 424.038 328.239C424.926 328.332 425.682 328.474 426.271 328.691C426.575 328.815 426.773 329.062 426.811 329.244C426.856 329.432 426.793 329.533 426.759 329.526Z" fill="#EB996E"/>
<path d="M298.518 199.858L296.034 249.659L317.578 251.668L318.769 239.582C318.769 239.582 326.368 241.44 328.676 234.482C330.15 230.037 331.462 195.225 331.462 195.225L298.518 199.858Z" fill="#FFBE9D"/>
<path d="M333.323 201.039C333.919 205.699 327.335 208.397 327.335 208.397L326.184 219.422C325.271 219.278 323.088 219.396 323.088 219.396C323.644 214.223 316.911 215.232 316.227 218.759C315.567 222.152 319.471 224.415 319.471 224.415C316.777 228.507 315.684 230.666 311.861 234.5C307.722 238.65 305.497 238.986 301.225 238.861L296.518 238.646C296.518 238.646 294.842 234.666 293.613 225.265C293.022 220.743 289.455 214.818 290.471 207.466C293.356 186.573 313.582 188.781 313.582 188.781C324.076 189.071 331.94 190.224 333.323 201.039Z" fill="#263238"/>
<path d="M317.82 189.385C322.391 189.502 327.125 189.858 331.137 192.026C335.149 194.194 338.241 198.649 337.417 203.1C336.657 203.235 335.896 203.371 335.137 203.506C334.823 202.951 334.508 202.396 334.195 201.839C334.203 202.726 334.213 203.614 334.221 204.502C332.883 204.872 331.543 205.242 330.204 205.611C329.61 202.231 328.4 198.956 326.649 195.995" fill="#263238"/>
<path d="M299.377 212.303C299.344 212.314 299.206 212.04 299.02 211.521C298.833 211.001 298.614 210.23 298.444 209.255C298.098 207.317 298.053 204.499 298.961 201.588C299.868 198.675 301.509 196.373 302.9 194.964C303.595 194.253 304.215 193.737 304.665 193.413C305.115 193.089 305.384 192.938 305.405 192.966C305.465 193.041 304.477 193.768 303.189 195.227C301.901 196.672 300.368 198.934 299.491 201.751C298.613 204.566 298.592 207.29 298.833 209.201C299.066 211.124 299.468 212.274 299.377 212.303Z" fill="#455A64"/>
<path d="M303.618 210.559C303.561 210.579 303.141 209.632 302.769 208.005C302.395 206.383 302.134 204.067 302.354 201.523C302.583 198.978 303.246 196.74 303.899 195.208C304.551 193.67 305.13 192.809 305.183 192.839C305.361 192.903 303.319 196.56 302.908 201.57C302.433 206.574 303.805 210.526 303.618 210.559Z" fill="#455A64"/>
<path d="M331.124 202.837C331.022 202.859 330.836 201.549 329.964 199.649C329.112 197.762 327.429 195.296 324.774 193.515C322.116 191.738 319.177 191.107 317.09 191.025C314.984 190.929 313.687 191.245 313.669 191.143C313.661 191.111 313.976 191 314.564 190.875C315.151 190.75 316.02 190.637 317.1 190.636C319.243 190.618 322.315 191.207 325.084 193.059C327.85 194.915 329.544 197.518 330.324 199.495C330.724 200.488 330.942 201.327 331.041 201.914C331.144 202.502 331.157 202.832 331.124 202.837Z" fill="#455A64"/>
<path d="M300.042 185.355C300.079 185.22 301.702 185.722 303.136 187.161C304.585 188.591 305.083 190.198 304.947 190.234C304.795 190.303 304.103 188.886 302.743 187.55C301.401 186.198 299.973 185.505 300.042 185.355Z" fill="#263238"/>
<path d="M305.082 185.375C305.236 185.43 304.912 186.54 304.974 187.923C305.017 189.308 305.422 190.391 305.274 190.457C305.152 190.532 304.471 189.461 304.42 187.944C304.356 186.429 304.954 185.309 305.082 185.375Z" fill="#455A64"/>
<path d="M333.264 295.297L336.783 307.094L359.114 297.087C358.312 294.619 354.618 283.616 347.548 266.16C343.609 256.432 334.845 249.413 324.4 247.693C317.092 246.491 309.142 245.552 303.018 245.619C290.496 245.756 272.062 253.502 269.584 265.65C267.694 274.924 269.517 291.296 269.517 311.189L271.151 349.197L335.322 351.351L333.264 295.297Z" fill="#317EFF"/>
<g opacity="0.3">
<path d="M269.584 302.393C277.394 303.973 285.411 302.379 293.367 301.913C298.19 301.629 303.543 301.113 307.358 304.047C310.383 306.374 311.603 310.286 312.475 313.978C315.804 328.053 316.409 337.488 317.157 351.923L278.531 354.24L269.584 302.393Z" fill="black"/>
</g>
<path d="M345.67 262.522C345.67 262.674 328.823 262.797 308.045 262.797C287.261 262.797 270.417 262.673 270.417 262.522C270.417 262.37 287.261 262.248 308.045 262.248C328.823 262.247 345.67 262.37 345.67 262.522Z" fill="#FAFAFA"/>
<path d="M350.353 273.192C350.353 273.344 332.038 273.466 309.448 273.466C286.851 273.466 268.539 273.344 268.539 273.192C268.539 273.04 286.851 272.916 309.448 272.916C332.037 272.916 350.353 273.04 350.353 273.192Z" fill="#FAFAFA"/>
<path d="M356.239 286.579C356.239 286.732 336.695 286.855 312.591 286.855C288.479 286.855 268.938 286.732 268.938 286.579C268.938 286.427 288.478 286.305 312.591 286.305C336.694 286.305 356.239 286.428 356.239 286.579Z" fill="#FAFAFA"/>
<path d="M319.14 301.29C326.67 301.29 332.775 301.167 332.775 301.014C332.775 300.862 326.67 300.739 319.14 300.739C311.611 300.739 305.506 300.862 305.506 301.014C305.506 301.167 311.611 301.29 319.14 301.29Z" fill="#FAFAFA"/>
<path d="M319.786 316.837C327.667 316.901 334.057 316.829 334.058 316.677C334.059 316.525 327.671 316.349 319.79 316.286C311.909 316.222 305.52 316.293 305.518 316.446C305.517 316.598 311.905 316.773 319.786 316.837Z" fill="#FAFAFA"/>
<path d="M334.668 329.42C334.666 329.458 334.265 329.473 333.543 329.466C332.698 329.45 331.678 329.432 330.484 329.409C327.904 329.351 324.339 329.283 320.403 329.279C316.465 329.278 312.902 329.344 310.32 329.399C309.127 329.42 308.108 329.438 307.262 329.453C306.54 329.458 306.139 329.443 306.137 329.405C306.135 329.367 306.531 329.31 307.25 329.239C307.97 329.166 309.014 329.087 310.304 329.01C312.884 328.856 316.457 328.727 320.403 328.728C324.349 328.732 327.92 328.862 330.5 329.02C331.79 329.098 332.834 329.178 333.553 329.252C334.273 329.325 334.67 329.383 334.668 329.42Z" fill="#FAFAFA"/>
<path d="M320.41 339.992C328.173 339.992 334.467 339.869 334.467 339.717C334.467 339.564 328.173 339.441 320.41 339.441C312.647 339.441 306.354 339.564 306.354 339.717C306.354 339.869 312.647 339.992 320.41 339.992Z" fill="#FAFAFA"/>
<path d="M336.368 252.062C336.368 252.214 324.018 252.336 308.784 252.336C293.546 252.336 281.197 252.213 281.197 252.062C281.197 251.91 293.546 251.787 308.784 251.787C324.018 251.787 336.368 251.91 336.368 252.062Z" fill="#FAFAFA"/>
<path d="M334.91 254.044C334.919 254.1 334.267 254.138 333.203 254.552C332.156 254.977 330.715 255.883 329.508 257.513C328.284 259.124 327.459 261.459 327.299 264.131C327.112 266.802 327.512 269.761 327.975 272.837C328.966 278.995 330.48 284.456 331.56 288.405C332.089 290.311 332.526 291.887 332.857 293.081C333.156 294.189 333.305 294.805 333.268 294.817C333.231 294.827 333.012 294.231 332.649 293.143C332.287 292.055 331.778 290.476 331.181 288.512C330.003 284.586 328.423 279.121 327.424 272.922C326.959 269.828 326.568 266.84 326.787 264.094C326.975 261.357 327.878 258.921 329.193 257.28C330.487 255.617 332.023 254.728 333.127 254.353C333.686 254.173 334.134 254.087 334.44 254.057C334.748 254.031 334.909 254.025 334.91 254.044Z" fill="#263238"/>
<path d="M358.416 294.078C358.45 294.143 357.254 294.836 355.27 295.863C353.287 296.892 350.511 298.245 347.398 299.636C344.282 301.025 341.419 302.188 339.327 302.979C337.236 303.77 335.919 304.198 335.893 304.13C335.864 304.058 337.129 303.5 339.179 302.618C341.229 301.738 344.061 300.521 347.169 299.134C350.277 297.747 353.072 296.452 355.097 295.513C357.121 294.577 358.38 294.007 358.416 294.078Z" fill="#263238"/>
<path d="M290.995 349.798L367.666 352.484C380.111 352.92 389.917 363.132 389.723 375.456L386.54 483.831L356.923 482.854L359.122 381.391L290.996 379.617V349.798H290.995Z" fill="#263238"/>
<path d="M259.322 349.798L335.993 352.484C348.439 352.92 358.245 363.132 358.05 375.456L354.867 483.831L324.858 481.467L327.448 381.391L259.321 379.617L259.322 349.798Z" fill="#263238"/>
<path d="M316.703 389.171H309.162V478.595H316.703V389.171Z" fill="#455A64"/>
<path d="M245.882 302.369V368.197C245.882 376.831 252.954 383.83 261.678 383.83H305.97V302.369C305.97 298.521 302.818 295.401 298.93 295.401H252.922C249.034 295.403 245.882 298.522 245.882 302.369Z" fill="#455A64"/>
<path d="M365.583 389.171H257.72C257.72 382.77 262.962 377.583 269.429 377.583H353.875C360.342 377.583 365.583 382.77 365.583 389.171Z" fill="#455A64"/>
<path d="M305.971 376.046C305.99 376.046 305.999 376.218 306 376.55C306.008 376.881 305.966 377.373 305.824 377.988C305.562 379.203 304.779 381.01 302.935 382.423C302.021 383.112 300.859 383.704 299.511 383.931C298.144 384.159 296.739 384.049 295.248 384.09C292.261 384.099 288.989 384.111 285.557 384.12C278.679 384.128 272.453 384.104 267.947 384.058C265.761 384.025 263.959 383.997 262.611 383.977C262.035 383.957 261.557 383.941 261.16 383.926C260.828 383.908 260.654 383.891 260.654 383.871C260.654 383.852 260.828 383.834 261.16 383.815C261.557 383.801 262.035 383.784 262.611 383.763C263.959 383.739 265.761 383.707 267.947 383.669C272.453 383.614 278.679 383.577 285.557 383.569C288.989 383.574 292.261 383.578 295.248 383.581C296.732 383.557 298.176 383.676 299.431 383.481C300.705 383.286 301.815 382.747 302.699 382.11C304.484 380.807 305.298 379.101 305.615 377.933C305.94 376.746 305.908 376.042 305.971 376.046Z" fill="#263238"/>
<path d="M312.932 389.675C316.587 389.675 319.549 389.552 319.549 389.4C319.549 389.248 316.587 389.124 312.932 389.124C309.278 389.124 306.316 389.248 306.316 389.4C306.316 389.552 309.278 389.675 312.932 389.675Z" fill="#263238"/>
<path d="M352.367 384.405C352.292 384.416 352.057 383.299 351.699 381.27C351.34 379.241 350.856 376.301 350.283 372.665C349.667 369.029 349.312 364.634 347.288 360.269C346.271 358.1 344.935 355.955 343.28 353.937C341.611 351.932 339.565 350.123 337.268 348.577C334.967 347.033 332.492 345.846 329.978 345.099C327.472 344.349 324.959 343.865 322.542 343.83C317.66 343.719 313.207 343.739 309.496 343.671C305.777 343.621 302.767 343.561 300.688 343.496C298.609 343.43 297.458 343.358 297.458 343.283C297.458 343.207 298.608 343.134 300.688 343.068C302.768 343.003 305.777 342.944 309.496 342.894C313.222 342.864 317.628 342.761 322.576 342.819C325.082 342.83 327.695 343.306 330.303 344.073C332.92 344.835 335.497 346.062 337.889 347.667C340.279 349.272 342.398 351.161 344.122 353.253C345.831 355.357 347.197 357.597 348.224 359.858C348.47 360.427 348.673 361.006 348.894 361.568C349.002 361.849 349.11 362.129 349.215 362.407C349.296 362.693 349.376 362.978 349.456 363.261C349.614 363.826 349.771 364.382 349.925 364.93C350.027 365.488 350.127 366.039 350.227 366.58C350.607 368.741 350.805 370.728 351.063 372.557C351.536 376.207 351.901 379.165 352.128 381.212C352.353 383.257 352.443 384.395 352.367 384.405Z" fill="#455A64"/>
<path d="M345.92 486.697H344.854C344.854 469.185 330.458 454.938 312.764 454.938C295.07 454.938 280.675 469.185 280.675 486.697H279.608C279.608 468.602 294.482 453.882 312.764 453.882C331.047 453.882 345.92 468.602 345.92 486.697Z" fill="#455A64"/>
<path d="M280.141 493.246C282.887 493.246 285.113 491.043 285.113 488.326C285.113 485.608 282.887 483.405 280.141 483.405C277.395 483.405 275.169 485.608 275.169 488.326C275.169 491.043 277.395 493.246 280.141 493.246Z" fill="#263238"/>
<path d="M345.635 492.567C348.381 492.567 350.607 490.364 350.607 487.647C350.607 484.93 348.381 482.727 345.635 482.727C342.889 482.727 340.664 484.93 340.664 487.647C340.664 490.364 342.889 492.567 345.635 492.567Z" fill="#263238"/>
<path d="M345.6 478.595C345.6 478.747 331.173 478.87 313.378 478.87C295.578 478.87 281.153 478.747 281.153 478.595C281.153 478.443 295.578 478.319 313.378 478.319C331.173 478.319 345.6 478.443 345.6 478.595Z" fill="#455A64"/>
<path d="M235.516 273.165C237.124 274.089 238.188 275.783 238.61 277.577C239.032 279.37 238.867 281.255 238.445 283.048C237.626 286.517 235.189 289.832 232.686 292.39C230 289.461 229.844 284.875 229.912 282.544C230.021 278.857 232.478 272.264 235.516 273.165Z" fill="#317EFF"/>
<path d="M235.477 298.592C235.233 296.549 236.325 294.467 238.027 293.287C239.728 292.107 241.949 291.781 243.988 292.174C244.931 292.356 245.926 292.75 246.38 293.588C246.803 294.371 246.627 295.376 246.122 296.112C245.616 296.846 244.832 297.348 244.02 297.73C241.24 299.039 238.305 299.801 235.477 298.592Z" fill="#317EFF"/>
<path d="M230.978 306.314C230.933 306.296 231.16 305.43 231.653 304.056C231.901 303.368 232.3 302.569 232.837 301.764C233.377 300.965 233.952 300.072 234.701 299.222C236.175 297.512 237.954 296.377 239.348 295.871C240.045 295.61 240.637 295.494 241.044 295.43C241.456 295.382 241.684 295.377 241.688 295.404C241.7 295.475 240.787 295.568 239.456 296.132C238.13 296.69 236.441 297.82 235.006 299.484C234.284 300.302 233.699 301.185 233.148 301.968C232.601 302.751 232.197 303.495 231.919 304.161C231.362 305.491 231.037 306.335 230.978 306.314Z" fill="#263238"/>
<path d="M234.094 278.351C234.122 278.353 234.113 278.776 234.074 279.541C234.034 280.308 233.963 281.412 233.862 282.778C233.661 285.509 233.339 289.279 232.881 293.434C232.421 297.59 231.9 301.34 231.463 304.045C231.246 305.397 231.057 306.49 230.91 307.242C230.766 307.994 230.672 308.408 230.644 308.404C230.618 308.4 230.658 307.979 230.754 307.218C230.865 306.389 231.008 305.307 231.18 304.005C231.542 301.292 232.02 297.542 232.479 293.39C232.905 289.272 233.289 285.545 233.578 282.754C233.714 281.448 233.828 280.362 233.917 279.529C234.004 278.769 234.066 278.349 234.094 278.351Z" fill="#263238"/>
<path d="M230.804 299.42C230.027 295.154 227.026 291.347 223.037 289.557C222.02 289.102 220.7 288.818 219.889 289.577C219.076 290.338 219.291 291.664 219.718 292.685C221.498 296.936 226.093 299.867 230.739 299.713" fill="#317EFF"/>
<path d="M223.817 292.698C223.832 292.675 224.033 292.773 224.386 292.973C224.741 293.169 225.236 293.483 225.837 293.89C227.009 294.723 228.648 295.964 229.898 297.829C230.518 298.76 230.945 299.749 231.193 300.683C231.444 301.62 231.482 302.495 231.475 303.219C231.442 303.944 231.372 304.525 231.274 304.918C231.187 305.313 231.128 305.526 231.1 305.521C231.02 305.508 231.205 304.632 231.189 303.218C231.16 302.512 231.094 301.67 230.833 300.776C230.576 299.884 230.158 298.943 229.561 298.047C228.358 296.251 226.785 294.996 225.667 294.114C224.525 293.25 223.781 292.752 223.817 292.698Z" fill="#263238"/>
<path d="M230.459 332.906C223.092 332.906 217.121 326.995 217.121 319.706V306.506H243.796V319.706C243.796 326.995 237.824 332.906 230.459 332.906Z" fill="#263238"/>
<path d="M243.796 312.999C243.808 313.014 243.681 313.143 243.431 313.373C243.129 313.64 242.764 313.964 242.328 314.35C241.296 315.229 239.928 316.395 238.304 317.779L238.206 317.863L238.093 317.795C235.857 316.465 233.209 314.889 230.362 313.196L230.346 313.186L230.578 313.182C227.94 314.874 225.479 316.453 223.386 317.795L223.274 317.867L223.171 317.788C221.385 316.403 219.879 315.235 218.747 314.359C218.263 313.969 217.859 313.644 217.529 313.377C217.251 313.146 217.11 313.015 217.121 313C217.133 312.985 217.298 313.086 217.597 313.287C217.945 313.532 218.369 313.831 218.878 314.189C220.033 315.034 221.571 316.16 223.396 317.495L223.182 317.487C225.265 316.129 227.715 314.531 230.339 312.819L230.454 312.745L230.572 312.816L230.588 312.825C233.421 314.541 236.056 316.139 238.281 317.487L238.07 317.504C239.735 316.166 241.136 315.04 242.192 314.192C242.655 313.834 243.04 313.536 243.36 313.291C243.633 313.086 243.784 312.984 243.796 312.999Z" fill="#E0E0E0"/>
<path d="M243.796 310.36C243.808 310.375 243.681 310.504 243.431 310.734C243.129 311.001 242.764 311.324 242.328 311.711C241.296 312.59 239.928 313.756 238.304 315.139L238.206 315.222L238.093 315.156C235.857 313.825 233.209 312.25 230.362 310.555L230.346 310.546L230.578 310.542C227.94 312.234 225.479 313.813 223.386 315.156L223.274 315.227L223.171 315.147C221.385 313.762 219.879 312.596 218.747 311.719C218.263 311.329 217.859 311.004 217.529 310.737C217.251 310.506 217.11 310.375 217.121 310.361C217.133 310.344 217.298 310.446 217.597 310.648C217.945 310.892 218.369 311.191 218.878 311.549C220.033 312.394 221.571 313.52 223.396 314.855L223.182 314.848C225.265 313.489 227.715 311.891 230.339 310.18L230.454 310.105L230.572 310.175L230.588 310.185C233.421 311.902 236.056 313.5 238.281 314.848L238.07 314.863C239.735 313.526 241.136 312.401 242.192 311.552C242.655 311.195 243.04 310.896 243.36 310.65C243.633 310.447 243.784 310.345 243.796 310.36Z" fill="#E0E0E0"/>
<path d="M243.796 315.684C243.808 315.698 243.681 315.827 243.431 316.057C243.129 316.324 242.764 316.649 242.328 317.035C241.296 317.913 239.928 319.08 238.304 320.464L238.206 320.547L238.093 320.48C235.857 319.149 233.209 317.573 230.362 315.88L230.346 315.871L230.578 315.866C227.94 317.559 225.479 319.138 223.386 320.48L223.274 320.551L223.171 320.472C221.385 319.087 219.879 317.92 218.747 317.042C218.263 316.653 217.859 316.328 217.529 316.062C217.251 315.83 217.11 315.7 217.121 315.685C217.133 315.67 217.298 315.77 217.597 315.972C217.945 316.217 218.369 316.516 218.878 316.873C220.033 317.719 221.571 318.844 223.396 320.18L223.182 320.171C225.265 318.813 227.715 317.215 230.339 315.503L230.454 315.429L230.572 315.5L230.588 315.51C233.421 317.226 236.056 318.823 238.281 320.171L238.07 320.187C239.735 318.851 241.136 317.724 242.192 316.876C242.655 316.519 243.04 316.221 243.36 315.974C243.633 315.77 243.784 315.669 243.796 315.684Z" fill="#E0E0E0"/>
<path d="M589.399 363.906C583.87 364.785 581.399 371.509 581.882 377.03C582.365 382.551 584.659 387.947 584.045 393.456C583.267 400.45 577.925 406.363 577.303 413.371C576.569 421.639 582.476 428.971 584.24 437.085C585.098 441.032 584.978 445.207 586.464 448.968C588.968 455.309 596.31 459.38 603.083 458.183C609.856 456.986 615.32 450.65 615.451 443.843C615.574 437.494 611.616 431.516 612.097 425.185C612.452 420.504 615.224 416.071 614.63 411.415C613.924 405.875 608.738 401.941 606.906 396.659C605.076 391.376 606.835 385.554 606.203 380.004C605.069 370.049 599.491 363.107 589.399 363.906Z" fill="#317EFF"/>
<path d="M561.17 412.115C560.229 421.341 564.351 432.195 569.146 440.162C573.941 448.129 581.371 454.511 590.014 458.088C590.989 458.492 592.203 458.83 593.023 458.171C593.695 457.631 593.779 456.663 593.785 455.805C593.851 446.097 590.657 436.394 584.829 428.585C579 420.776 570.566 414.906 561.17 412.115Z" fill="#317EFF"/>
<g opacity="0.2">
<path d="M561.17 412.115C560.229 421.341 564.351 432.195 569.146 440.162C573.941 448.129 581.371 454.511 590.014 458.088C590.989 458.492 592.203 458.83 593.023 458.171C593.695 457.631 593.779 456.663 593.785 455.805C593.851 446.097 590.657 436.394 584.829 428.585C579 420.776 570.566 414.906 561.17 412.115Z" fill="black"/>
</g>
<path d="M601.778 477.379C601.761 477.385 601.671 477.208 601.513 476.865C601.338 476.467 601.117 475.966 600.848 475.354C600.288 474.037 599.45 472.14 598.383 469.811C596.255 465.154 593.1 458.813 589.128 452.078C585.147 445.345 581.111 439.513 578.057 435.391C576.53 433.329 575.273 431.675 574.387 430.546C573.98 430.013 573.648 429.578 573.384 429.232C573.159 428.926 573.048 428.762 573.062 428.75C573.076 428.739 573.215 428.881 573.467 429.165C573.752 429.495 574.11 429.91 574.549 430.419C575.485 431.511 576.791 433.131 578.358 435.17C581.496 439.241 585.592 445.06 589.585 451.814C593.568 458.569 596.68 464.955 598.726 469.66C599.751 472.013 600.536 473.934 601.038 475.277C601.271 475.905 601.461 476.417 601.611 476.826C601.737 477.183 601.796 477.373 601.778 477.379Z" fill="#263238"/>
<path d="M595.777 389.43C595.797 389.429 595.831 389.733 595.879 390.315C595.925 390.941 595.988 391.789 596.065 392.856C596.212 395.112 596.418 398.293 596.672 402.203C597.176 410.098 597.883 421.002 598.74 433.039C599.597 445.081 600.44 455.976 601.058 463.862C601.36 467.769 601.606 470.948 601.781 473.204C601.853 474.27 601.912 475.117 601.954 475.743C601.99 476.325 601.999 476.631 601.98 476.633C601.961 476.634 601.916 476.331 601.848 475.754C601.781 475.129 601.69 474.283 601.575 473.222C601.359 470.969 601.057 467.795 600.684 463.894C599.97 456.014 599.067 445.122 598.211 433.077C597.355 421.037 596.708 410.126 596.299 402.225C596.115 398.31 595.965 395.125 595.86 392.866C595.823 391.796 595.793 390.948 595.772 390.32C595.757 389.738 595.759 389.431 595.777 389.43Z" fill="#263238"/>
<path d="M587.202 464.222H610.548V481.184C610.548 487.31 605.531 492.275 599.341 492.275C593.384 492.275 588.469 487.664 588.15 481.777L587.202 464.222Z" fill="#263238"/>
<path d="M468.947 240.577L524.629 271.086L522.534 274.978L467.351 243.888L468.947 240.577Z" fill="#317EFF"/>
<path d="M466.211 237.688L468.769 233.813L470.26 234.72L467.966 238.634L466.211 237.688Z" fill="#317EFF"/>
<path d="M518.305 266.263L521.165 267.894L511.838 326.77L507.429 326.825L518.305 266.263Z" fill="#317EFF"/>
<path d="M494.597 332.906C494.597 332.906 501.384 326.107 510.48 326.608C519.575 327.108 524.238 332.873 524.238 332.873L494.597 332.906Z" fill="#317EFF"/>
<path d="M466.261 264.382L444.215 251.785L450.58 240.876C454.095 234.852 461.879 232.787 467.967 236.266C474.054 239.744 476.141 247.448 472.626 253.473L466.261 264.382Z" fill="#317EFF"/>
</svg>
