<svg width="46" height="45" viewBox="0 0 46 45" fill="none" xmlns="http://www.w3.org/2000/svg">
<rect x="0.0236816" width="45.047" height="44.9143" rx="4.67857" fill="white"/>
<path d="M17.0668 38.8509C20.0922 38.8509 22.5473 36.4031 22.5473 33.3866V27.9224H17.0668C14.0415 27.9224 11.5864 30.3702 11.5864 33.3866C11.5864 36.4031 14.0415 38.8509 17.0668 38.8509Z" fill="#0ACF83"/>
<path d="M11.5854 22.4574C11.5854 19.441 14.0405 16.9932 17.0659 16.9932H22.5472V27.9226H17.0668C14.0414 27.9217 11.5854 25.4739 11.5854 22.4574Z" fill="#A259FF"/>
<path d="M11.5854 11.5278C11.5854 8.51131 14.0405 6.06348 17.0659 6.06348L22.5472 6.06348V16.9929H17.0668C14.0414 16.9929 11.5854 14.5442 11.5854 11.5278Z" fill="#F24E1E"/>
<path d="M22.5471 6.06348H28.0275C31.0529 6.06348 33.5079 8.51131 33.5079 11.5278C33.5079 14.5442 31.0529 16.992 28.0275 16.992H22.5471V6.06348Z" fill="#FF7262"/>
<path d="M31.9026 26.3213C34.0428 24.1874 34.0428 20.7276 31.9026 18.5937C29.7624 16.4598 26.2924 16.4598 24.1522 18.5937C22.012 20.7276 22.012 24.1874 24.1522 26.3213C26.2924 28.4552 29.7624 28.4552 31.9026 26.3213Z" fill="#1ABCFE"/>
</svg>
